<?xml version="1.0" encoding="UTF-8"?>
<svg version="1.1" xmlns="http://www.w3.org/2000/svg" width="512" height="512">
<path d="M0 0 C1.48343121 -0.00187046 2.96686193 -0.00417209 4.45029187 -0.00686532 C8.50943199 -0.0129607 12.56855144 -0.0128524 16.62769508 -0.01167095 C21.0122878 -0.01146637 25.39687398 -0.01699115 29.78146362 -0.02172852 C38.3652251 -0.03002316 46.94897971 -0.03278282 55.53274485 -0.03334089 C62.51230178 -0.03381661 69.49185645 -0.03587412 76.47141266 -0.03904152 C96.27389708 -0.04784478 116.07637608 -0.0524614 135.87886247 -0.05171105 C136.94567684 -0.05167109 138.01249122 -0.05163113 139.1116333 -0.05158997 C140.71381595 -0.05152864 140.71381595 -0.05152864 142.34836593 -0.05146609 C159.65637861 -0.05105969 176.96436953 -0.06062855 194.27237591 -0.07472833 C212.05799033 -0.0891025 229.84359415 -0.09599795 247.62921453 -0.09513456 C257.60890577 -0.09480295 267.58857419 -0.09753405 277.56826019 -0.10831261 C286.06532409 -0.11743129 294.56235483 -0.11958161 303.05942151 -0.11280318 C307.39113776 -0.10954492 311.72279043 -0.10945617 316.05450058 -0.11815643 C320.02710172 -0.12605307 323.9995892 -0.12455793 327.97218767 -0.1158723 C329.40215446 -0.11434425 330.83212986 -0.11612697 332.26208648 -0.12173238 C349.58675862 -0.18509624 364.59426851 1.49599101 377.7756958 13.75871277 C389.55653989 26.50997236 391.64463731 39.8747076 391.59889221 56.49232483 C391.6019158 58.0514291 391.60580632 59.61053189 391.61048478 61.16963208 C391.62074677 65.43788181 391.61858755 69.70604738 391.61430418 73.97430396 C391.6118337 78.58381536 391.62085512 83.19330666 391.62834167 87.80281067 C391.64108164 96.82707094 391.64288325 105.85130146 391.64054141 114.87556921 C391.63875734 122.21174377 391.6405098 129.54790931 391.64476585 136.88408279 C391.64536104 137.92877398 391.64595623 138.97346517 391.64656946 140.04981367 C391.64778123 142.17220282 391.64899536 144.29459197 391.65021183 146.41698112 C391.66108462 166.31428943 391.65892609 186.2115808 391.65282699 206.10889007 C391.64765782 224.30418003 391.65891374 242.49941645 391.67792521 260.69469582 C391.69730554 279.38657404 391.70555928 298.07842695 391.70180196 316.77031529 C391.69989024 327.26079834 391.70237463 337.75123582 391.71651649 348.24171066 C391.72843371 357.1721638 391.72983131 366.10254332 391.71772633 375.03299747 C391.71184013 379.58726989 391.71073109 384.14140766 391.72272873 388.69567108 C391.73359564 392.86929421 391.7304746 397.04267041 391.71646705 401.21628202 C391.71382235 402.72158222 391.71617948 404.22690183 391.72420291 405.73218296 C391.80377519 421.78191855 388.8012806 433.9761453 377.6975708 445.80558777 C364.36212012 458.96440996 349.33592591 460.44916493 331.23297119 460.38768005 C329.73798757 460.38998904 328.24300509 460.39316848 326.74802494 460.39713454 C322.67090342 460.40543112 318.59387635 460.40138082 314.51675463 460.39516211 C310.10769057 460.39061745 305.69864219 460.39763133 301.2895813 460.40312195 C292.66444542 460.41199616 284.03934444 460.41010274 275.41420722 460.40429667 C268.4018168 460.39977241 261.38943614 460.39917057 254.37704468 460.4013443 C252.87765936 460.401804 252.87765936 460.401804 251.34798342 460.40227298 C249.3170766 460.40291246 247.28616978 460.40356089 245.25526297 460.40421817 C226.22966935 460.40991569 207.20409504 460.40337265 188.17850459 460.39261743 C171.86811856 460.38368245 155.557761 460.38523466 139.24737549 460.39445496 C120.28796006 460.4051678 101.32856152 460.40936642 82.36914349 460.40323043 C80.34587797 460.40259336 78.32261245 460.40196462 76.29934692 460.4013443 C74.80627765 460.40088147 74.80627765 460.40088147 73.28304535 460.4004093 C66.2823919 460.3986854 59.2817492 460.40159087 52.28109741 460.40630341 C43.74491447 460.41192351 35.20876829 460.41037206 26.67258954 460.39974192 C22.32072633 460.39450041 17.96892432 460.39240245 13.61706161 460.39904022 C9.62735799 460.40503338 5.63777188 460.40166946 1.6480788 460.39108512 C0.21081879 460.38886529 -1.22645131 460.38995521 -2.66370475 460.39483669 C-19.74314918 460.44836037 -34.49526271 458.47132112 -47.2243042 446.19621277 C-56.17225061 436.4854906 -60.77869411 425.94642514 -60.79323196 412.64583397 C-60.79707311 411.32593889 -60.80091425 410.0060438 -60.8048718 408.6461519 C-60.80409159 407.18280747 -60.80321281 405.71946309 -60.80224609 404.25611877 C-60.80483031 402.70046783 -60.80784363 401.14481755 -60.81124949 399.58916819 C-60.81931616 395.31190345 -60.82110888 391.0346555 -60.82184696 386.75738406 C-60.82369811 382.14508028 -60.83124579 377.5327852 -60.83798218 372.92048645 C-60.85156394 362.83358997 -60.85759006 352.74669747 -60.86199284 342.65979338 C-60.86475568 336.36081197 -60.86899313 330.06183209 -60.87349701 323.76285172 C-60.88568977 306.32115208 -60.89598888 288.87945367 -60.8993721 271.43774986 C-60.89959167 270.3214356 -60.89981123 269.20512133 -60.90003745 268.05497936 C-60.90025573 266.93599957 -60.90047401 265.81701979 -60.9006989 264.66413152 C-60.90114237 262.39666772 -60.90158893 260.12920391 -60.90203857 257.86174011 C-60.90226 256.73700065 -60.90248143 255.61226119 -60.90270957 254.45343871 C-60.90665688 236.23203124 -60.92410883 218.01066378 -60.9473981 199.78927176 C-60.97111851 181.07944344 -60.98357428 162.36963519 -60.98474002 143.65979159 C-60.98565642 133.15583087 -60.99139999 122.65192227 -61.00955963 112.14797592 C-61.02496995 103.20279174 -61.03007559 94.25767579 -61.02182153 85.31248085 C-61.01791826 80.75013162 -61.01882885 76.18791974 -61.03287888 71.62558746 C-61.04563711 67.444409 -61.04440345 63.26347085 -61.03228816 59.08229263 C-61.03033449 57.57417868 -61.03339432 56.06604759 -61.04213253 54.55795769 C-61.129192 38.50948101 -58.1459062 26.26742804 -47.0055542 14.45793152 C-33.60983203 1.17384037 -18.01136579 -0.02160034 0 0 Z M-41.5836792 25.37590027 C-52.30636892 40.71677813 -49.6618042 56.05483867 -49.6618042 75.13371277 C91.9081958 75.13371277 233.4781958 75.13371277 379.3381958 75.13371277 C381.46823076 45.74136152 381.46823076 45.74136152 369.3381958 22.13371277 C359.48052271 12.58547337 347.10702773 11.53858088 333.99172974 11.63250732 C332.47056819 11.62860713 330.94941031 11.62296096 329.42826092 11.61573642 C325.27876832 11.60106715 321.1296585 11.61111176 316.98017859 11.62547314 C312.49343035 11.63662772 308.00673385 11.62462564 303.51998901 11.6156311 C294.7430831 11.60172776 285.96632146 11.609233 277.18942247 11.62430669 C266.96201385 11.64120047 256.73464082 11.63795233 246.50722255 11.63421261 C228.25667803 11.6283395 210.00620259 11.64248483 191.75567627 11.66716003 C174.05708223 11.69108622 156.35858045 11.69816083 138.65997314 11.68766785 C119.37168913 11.67625282 100.08344774 11.67433527 80.79516423 11.68876594 C78.73767098 11.69029174 76.68017773 11.69181209 74.62268448 11.69332695 C73.10431607 11.69446367 73.10431607 11.69446367 71.55527356 11.69562336 C64.43044686 11.70036111 57.30563924 11.69851841 50.18081284 11.69426155 C41.49669555 11.68932974 32.8126654 11.69534246 24.12856804 11.71515585 C19.69997123 11.7250119 15.27150697 11.73015115 10.84290314 11.72226334 C6.78539735 11.71518443 2.72815851 11.72206254 -1.32931219 11.73986696 C-2.79345044 11.74389712 -4.25761319 11.74293576 -5.72174217 11.7363481 C-20.06590633 11.67735478 -31.8211627 13.98629768 -41.5836792 25.37590027 Z M-49.6618042 86.13371277 C-49.7030542 139.69683777 -49.7443042 193.25996277 -49.7868042 248.44621277 C-49.80501221 265.36556091 -49.82322021 282.28490906 -49.84197998 299.71696472 C-49.84866841 314.86926992 -49.84866841 314.86926992 -49.85269165 330.02157593 C-49.85455666 336.77610669 -49.86189279 343.53060436 -49.87295532 350.28512573 C-49.88569902 358.07766133 -49.89147302 365.87016519 -49.8886941 373.66271127 C-49.88749087 377.64768503 -49.8893796 381.63258788 -49.90023446 385.61754858 C-49.91000323 389.22579952 -49.91042752 392.83392975 -49.90360641 396.44218636 C-49.90236502 398.35489851 -49.91095151 400.26760939 -49.91996574 402.18030071 C-49.87211458 416.094876 -47.89407222 428.90144475 -37.6618042 439.13371277 C-27.18751879 447.60892979 -16.71217505 448.58052749 -3.56930542 448.52139282 C-2.05129665 448.52557126 -0.533291 448.53105156 0.98470891 448.53771263 C5.13479006 448.5521192 9.28467182 448.54793758 13.43476367 448.54054582 C17.91885902 448.53580455 22.40291182 448.54833248 26.88699341 448.55856323 C35.66347708 448.57573785 44.43988912 448.576594 53.21638523 448.57135033 C60.35182569 448.56730486 67.48724502 448.56875666 74.62268448 448.57409859 C75.63919784 448.57484701 76.6557112 448.57559543 77.703028 448.57636653 C79.76823989 448.57789805 81.83345178 448.5794364 83.89866365 448.5809815 C103.25521848 448.59470174 122.61173287 448.58927222 141.96828677 448.57779629 C159.6649339 448.5678647 177.36147647 448.58080415 195.05810748 448.60473048 C213.24265244 448.62913066 231.42714871 448.63872707 249.61170971 448.63207775 C259.81550012 448.62858754 270.01921012 448.63080453 280.22298813 448.64832878 C288.90930345 448.66306224 297.59548175 448.66367123 306.28179441 448.64625787 C310.71066912 448.63775489 315.13929916 448.6355811 319.56816101 448.65090942 C323.62837768 448.66478751 327.6881408 448.65995362 331.74833144 448.64067019 C333.21122294 448.6369194 334.67415105 448.63980544 336.13700984 448.65028184 C348.76275233 448.73421904 359.42628266 446.84821024 369.14678955 438.39152527 C379.43003795 427.79666328 380.79855105 414.38193024 380.69895935 400.23851013 C380.70027492 398.87848225 380.70291169 397.51845513 380.70674133 396.15843201 C380.71341678 392.44727094 380.70150401 388.73637338 380.68641399 385.02524573 C380.67324221 380.95201148 380.67770253 376.87878791 380.67986774 372.80553818 C380.68145784 364.91136912 380.66765365 357.01730306 380.64836376 349.12316041 C380.62670604 339.98522907 380.62437636 330.847359 380.62200928 321.70939636 C380.60627853 297.60081892 380.56439496 273.49226428 380.5256958 249.38371277 C380.4328833 168.57496277 380.4328833 168.57496277 380.3381958 86.13371277 C238.4381958 86.13371277 96.5381958 86.13371277 -49.6618042 86.13371277 Z " fill="#877eff" transform="translate(90.66180419921875,25.866287231445313)"/>
<path d="M0 0 C0.75115337 -0.00382555 1.50230675 -0.00765109 2.27622235 -0.01159257 C4.77090136 -0.02183809 7.26534656 -0.01794664 9.76004028 -0.01396179 C11.55778209 -0.01831296 13.35552205 -0.02349745 15.15325928 -0.02944946 C20.02109134 -0.04280735 24.8888456 -0.04342169 29.75669241 -0.04088616 C33.82712523 -0.03981425 37.89754245 -0.04470548 41.96797192 -0.04949158 C51.57445456 -0.06057573 61.1808981 -0.06103036 70.78738403 -0.05497742 C80.68261605 -0.0489382 90.57770586 -0.06124985 100.47291362 -0.08254749 C108.98272412 -0.10018675 117.49248945 -0.10616116 126.00231755 -0.10290974 C131.07860949 -0.10110041 136.15479998 -0.10369807 141.23107529 -0.11762428 C146.00656102 -0.13023581 150.78182571 -0.12822712 155.5573082 -0.11521339 C157.30435258 -0.11285528 159.05141268 -0.11555473 160.79843903 -0.12383652 C173.72899633 -0.18068768 184.85835612 0.57481844 195.11990356 9.26069641 C203.82471153 18.27569798 205.71881737 28.46809273 205.63748169 40.6139679 C205.64449097 41.91449097 205.65150024 43.21501404 205.65872192 44.5549469 C205.67682405 48.09439113 205.66994234 51.63336449 205.65720558 55.17281604 C205.6470071 58.89524177 205.65649031 62.61762988 205.66275024 66.34005737 C205.67000779 72.58979961 205.66048993 78.83935218 205.64138794 85.08906555 C205.61963223 92.28965008 205.62666848 99.48978125 205.64869356 106.69035476 C205.66691328 112.89793478 205.66937369 119.10537922 205.65893888 125.31297737 C205.65273862 129.00934997 205.65177147 132.70551031 205.66508484 136.40186882 C205.6789089 140.52752387 205.65968713 144.65241188 205.63748169 148.7780304 C205.64557861 149.98512161 205.65367554 151.19221283 205.66201782 152.43588257 C205.54657675 164.06852848 202.67937322 172.67060744 194.56521606 181.09272766 C187.42744504 187.42094318 180.8611914 189.41026354 171.49304199 189.40786743 C170.720805 189.41154412 169.94856801 189.41522081 169.1529299 189.41900891 C166.56297558 189.43002966 163.9730614 189.43388688 161.38308716 189.43769836 C159.52682366 189.44396429 157.67056141 189.4506112 155.81430054 189.45761108 C149.71565625 189.47864052 143.61701174 189.48901319 137.51834106 189.49897766 C135.41729342 189.50302579 133.3162459 189.50714273 131.21519852 189.51132774 C121.34271784 189.53037783 111.47024463 189.54460863 101.59774911 189.55293971 C90.21015938 189.56270849 78.82276421 189.58901948 67.43524301 189.62944061 C58.62828323 189.65962644 49.82137915 189.67441098 41.01436865 189.67772073 C35.75688074 189.6800686 30.49960074 189.68899485 25.24216843 189.7141819 C20.29270489 189.7375104 15.34358544 189.7416766 10.39408112 189.73142052 C8.58252694 189.73092619 6.77095556 189.73721604 4.95945358 189.75097656 C-8.63589989 189.84842897 -18.47755772 188.53718764 -28.67697144 178.83491516 C-34.58414833 171.93273507 -36.99244252 163.7115197 -37.02053833 154.75344849 C-37.02624847 153.65877258 -37.03195862 152.56409668 -37.0378418 151.43624878 C-37.03895966 150.24498886 -37.04007751 149.05372894 -37.04122925 147.82637024 C-37.04619415 146.56398529 -37.05115906 145.30160034 -37.05627441 144.0009613 C-37.06935983 140.54408513 -37.07583606 137.08722834 -37.08028507 133.63033128 C-37.08322265 131.46683574 -37.08732878 129.30334542 -37.09178925 127.13985252 C-37.10545536 120.35993024 -37.11512578 113.58001998 -37.11899114 106.80008489 C-37.12346683 98.99407877 -37.14099565 91.1882482 -37.16999173 83.38229543 C-37.1916678 77.33537564 -37.2016986 71.28850501 -37.20303226 65.24154681 C-37.20407625 61.63624127 -37.20989676 58.03110093 -37.22785187 54.42583656 C-37.24752297 50.39778263 -37.2430201 46.37009207 -37.23654175 42.34199524 C-37.24575653 41.16085648 -37.25497131 39.97971771 -37.26446533 38.76278687 C-37.20696171 27.3142634 -34.78900822 17.82988033 -26.88009644 9.26069641 C-18.63079547 2.60962067 -10.52050145 -0.05797575 0 0 Z M-18.90353394 18.00679016 C-19.34954956 18.56495422 -19.79556519 19.12311829 -20.25509644 19.69819641 C-20.71658081 20.25378235 -21.17806519 20.80936829 -21.65353394 21.38179016 C-24.30601361 25.44498354 -25.12984278 29.01797823 -25.12060547 33.8352356 C-25.1233548 34.9443631 -25.12610413 36.0534906 -25.12893677 37.19622803 C-25.12174622 38.40319839 -25.11455566 39.61016876 -25.10714722 40.85371399 C-25.10743927 42.13216187 -25.10773132 43.41060974 -25.10803223 44.72779846 C-25.10860522 48.22538124 -25.09685966 51.72282637 -25.08288431 55.22037721 C-25.07036799 58.87855977 -25.06920574 62.53674561 -25.0668335 66.19494629 C-25.06062138 73.11863176 -25.04421419 80.04225394 -25.02413452 86.96591157 C-25.00176717 94.84978638 -24.99077999 102.73366424 -24.98074365 110.61756289 C-24.95984772 126.83197775 -24.92467696 143.046329 -24.88009644 159.26069641 C-22.04425204 156.45284378 -19.34689621 153.76395585 -17.04025269 150.50288391 C-16.5421106 149.80493713 -16.04396851 149.10699036 -15.5307312 148.38789368 C-15.00664673 147.64466858 -14.48256226 146.90144348 -13.94259644 146.13569641 C-12.78719031 144.5166043 -11.63091154 142.89813462 -10.47384644 141.28022766 C-9.88087769 140.44958801 -9.28790894 139.61894836 -8.67697144 138.76313782 C-5.80056079 134.75726701 -2.87341864 130.78934773 0.05740356 126.82319641 C0.63224487 126.04468323 1.20708618 125.26617004 1.79934692 124.46406555 C2.9722119 122.87592312 4.14530897 121.28795208 5.31863403 119.70014954 C7.18307521 117.17514327 9.04450477 114.64794235 10.90505981 112.12007141 C11.52711304 111.27501038 12.14916626 110.42994934 12.79006958 109.5592804 C13.96912799 107.95736555 15.14801496 106.3553245 16.32669067 104.75312805 C17.40031027 103.29521508 18.47679459 101.83940645 19.556427 100.38594055 C20.61743818 98.94370096 21.66192346 97.48918549 22.69119263 96.02412415 C26.75301921 90.33563272 30.15505297 87.72536352 37.11990356 86.26069641 C41.9302114 85.98481111 45.79065678 86.66389173 50.18240356 88.63569641 C57.77564627 95.42114734 63.46121239 104.01334537 69.29959106 112.29585266 C73.18599742 117.79193786 77.20606854 123.19021389 81.21047974 128.60054016 C84.55634334 133.12474002 87.86313325 137.67188871 91.11990356 142.26069641 C97.90727067 136.66681265 103.93480924 130.4288678 110.00466919 124.07319641 C115.42125427 118.5387646 120.25118555 114.15067712 128.02615356 112.72944641 C128.88209106 112.73975891 129.73802856 112.75007141 130.61990356 112.76069641 C131.90380981 112.74522766 131.90380981 112.74522766 133.21365356 112.72944641 C142.77327713 114.47690448 148.6859726 121.29742277 155.18240356 127.93257141 C156.22384035 128.98148147 157.2661734 130.02950231 158.30935669 131.07667542 C161.03410069 133.81659021 163.74660924 136.56830575 166.45663452 139.32276917 C169.23154727 142.13882039 172.01801681 144.94338601 174.80349731 147.74897766 C180.25359007 153.24179002 185.69079143 158.74713737 191.11990356 164.26069641 C194.53444563 160.84615434 194.24511741 156.60995949 194.26034546 151.97450256 C194.2660556 150.92886642 194.27176575 149.88323029 194.27764893 148.8059082 C194.27876678 147.66918167 194.27988464 146.53245514 194.28103638 145.36128235 C194.28600128 144.15581253 194.29096619 142.95034271 194.29608154 141.70834351 C194.3081663 138.40853756 194.31564213 135.10879479 194.3200922 131.80897427 C194.32303011 129.74398212 194.32713628 127.67899543 194.33159637 125.61400604 C194.34526043 119.14323477 194.35493222 112.67247609 194.35879827 106.20169139 C194.36327541 98.75054486 194.3808118 91.2995821 194.40979886 83.84849143 C194.43146766 78.07674405 194.44150532 72.30504818 194.44283938 66.53326058 C194.44388377 63.09174535 194.44971284 59.65040311 194.467659 56.20893097 C194.48475507 52.36504275 194.48283013 48.52159964 194.47634888 44.6776886 C194.49017105 42.98474419 194.49017105 42.98474419 194.50427246 41.25759888 C194.46106964 33.05855551 193.57489109 25.20383681 187.86990356 18.88569641 C187.05779419 17.94596985 187.05779419 17.94596985 186.22927856 16.98725891 C181.0530495 12.75041957 175.79886744 11.81679564 169.27067566 11.87301636 C168.51079847 11.86763082 167.75092129 11.86224528 166.96801752 11.85669655 C164.43783063 11.84246109 161.90817018 11.84950958 159.37796021 11.85664368 C157.55741457 11.8509378 155.7368725 11.8439727 153.91633606 11.83584595 C148.98243476 11.8179237 144.0487114 11.81908115 139.11478734 11.82478833 C134.99201761 11.82788146 130.86928199 11.82178636 126.74651712 11.81574959 C117.01881817 11.8017091 107.29120705 11.80326177 97.56350708 11.81465149 C87.53585805 11.82613313 77.50847647 11.81205514 67.48086268 11.78525501 C58.86323893 11.76308763 50.24569907 11.75646296 41.62804884 11.76233143 C36.48471034 11.7656996 31.34154329 11.76329508 26.19822884 11.7460804 C21.36114206 11.73059678 16.52445106 11.7345826 11.68737984 11.75338554 C9.9153094 11.75706745 8.14320954 11.75397458 6.37116623 11.74349976 C-7.23261064 11.53283114 -7.23261064 11.53283114 -18.90353394 18.00679016 Z M33.11990356 100.26069641 C31.51346458 102.23785208 30.09250884 104.15418031 28.68240356 106.26069641 C27.80514326 107.52876376 26.92613967 108.79562629 26.04568481 110.06147766 C25.57598267 110.7403302 25.10628052 111.41918274 24.62234497 112.11860657 C21.93891806 115.94447392 19.15056276 119.69272613 16.36990356 123.44819641 C15.16807124 125.07579363 13.96624843 126.70339788 12.76443481 128.33100891 C11.54967363 129.97429912 10.3348302 131.61752852 9.11990356 133.26069641 C0.04353183 145.53976268 -8.96653324 157.86282181 -17.88009644 170.26069641 C-16.50191769 173.66086732 -15.28988382 174.97729245 -11.95005798 176.48231506 C-6.53249731 178.68732654 -1.54759322 178.79833517 4.23928833 178.71479797 C5.31349533 178.71538208 6.38770233 178.71596619 7.49446106 178.71656799 C11.01708181 178.71379891 14.53883833 178.68276146 18.06130981 178.65132141 C20.51466917 178.64385487 22.96803451 178.63816389 25.42140198 178.63417053 C31.85767272 178.61894692 38.29357857 178.5796928 44.72970581 178.53535461 C51.30568507 178.49433154 57.88172367 178.47614447 64.45779419 178.45600891 C77.34531905 178.41319581 90.23259184 178.34575998 103.11990356 178.26069641 C102.50365112 177.16539612 101.88739868 176.07009583 101.25247192 174.94160461 C100.90582993 174.3254982 100.55918793 173.70939178 100.20204163 173.07461548 C98.57915334 170.35427127 96.65030718 167.92715763 94.68240356 165.44819641 C90.61898938 160.26420939 86.7102245 154.98686824 82.86990356 149.63569641 C77.20371275 141.74756848 71.46781923 133.91416511 65.69412231 126.10444641 C63.20575533 122.7379538 60.73109763 119.36187254 58.26443481 115.97944641 C57.63335815 115.1163385 57.00228149 114.25323059 56.3520813 113.3639679 C55.14444349 111.71182031 53.93938362 110.05778423 52.73733521 108.40156555 C48.06235982 101.49461548 48.06235982 101.49461548 41.18240356 97.32319641 C37.3869013 97.24573718 36.17344054 98.04203888 33.11990356 100.26069641 Z M124.11990356 126.26069641 C122.0723788 128.14581622 120.10829602 130.0384496 118.16287231 132.02241516 C117.61504593 132.57307144 117.06721954 133.12372772 116.50279236 133.69107056 C114.76621563 135.43877948 113.03675059 137.1933364 111.30740356 138.94819641 C110.12622691 140.13941186 108.94459096 141.33017207 107.76248169 142.52046204 C104.87627999 145.42863169 101.99643291 148.34296058 99.11990356 151.26069641 C100.46024031 154.08093114 101.96598373 156.60825998 103.76443481 159.15913391 C104.27683716 159.88616516 104.7892395 160.61319641 105.31716919 161.36225891 C105.85019653 162.11249329 106.38322388 162.86272766 106.93240356 163.63569641 C107.45382935 164.37819641 107.97525513 165.12069641 108.51248169 165.88569641 C110.02877103 168.02856723 111.54244586 170.16228019 113.11990356 172.26069641 C113.74171509 173.32159485 114.36352661 174.38249329 115.00418091 175.47554016 C116.86939446 177.66923954 117.89557584 178.21402363 120.7514801 178.80821228 C124.18688172 179.02432915 127.57253655 179.0393194 131.01443481 178.98725891 C132.27575729 178.98825592 133.53707977 178.98925293 134.83662415 178.99028015 C137.50496824 178.98559959 140.17013075 178.96933731 142.83792114 178.93305969 C146.23751204 178.88781972 149.63532185 178.88657387 153.0351305 178.90009499 C156.29919668 178.90843581 159.56295425 178.88438618 162.82693481 178.86225891 C164.03863846 178.86408173 165.2503421 178.86590454 166.49876404 178.86778259 C173.49184183 178.75129437 178.14330864 177.96147986 184.11990356 174.26069641 C176.51820291 165.12218424 167.99847409 156.83910678 159.62527466 148.41596985 C157.6146138 146.39189859 155.61150328 144.36077421 153.61453247 142.32319641 C151.18723349 139.84657744 148.74788434 137.38246346 146.29936218 134.92683029 C144.92529322 133.54282316 143.56342518 132.14673691 142.20181274 130.75047302 C141.36073975 129.91225006 140.51966675 129.0740271 139.65310669 128.21040344 C138.92063721 127.46984711 138.18816772 126.72929077 137.4335022 125.96629333 C132.59125032 122.39656011 128.74087271 122.703151 124.11990356 126.26069641 Z " fill="#877eff" transform="translate(112.88009643554688,152.7393035888672)"/>
<path d="M0 0 C1.94785778 -0.00782324 1.94785778 -0.00782324 3.93506622 -0.01580453 C5.38985753 -0.01147972 6.84464828 -0.00696638 8.29943848 -0.002285 C9.83416645 -0.00458731 11.36889332 -0.00776227 12.90361786 -0.01173949 C17.1366531 -0.02012785 21.36959876 -0.015944 25.60263443 -0.00976706 C30.16165032 -0.00526 34.72065031 -0.01221761 39.27966309 -0.0177269 C48.21697544 -0.0266413 57.1542543 -0.02468981 66.09156799 -0.01890162 C73.35218583 -0.01439316 80.61279425 -0.01376868 87.87341309 -0.01594925 C88.90499904 -0.01625572 89.936585 -0.01656218 90.99943113 -0.01687793 C93.09478061 -0.01751736 95.19013008 -0.01816578 97.28547955 -0.01882312 C116.95453126 -0.02453241 136.62356437 -0.01795914 156.29261303 -0.00722238 C173.18617355 0.00171367 190.07970658 0.00016179 206.9732666 -0.00905991 C226.56976016 -0.01975198 246.16623739 -0.02398303 265.76273346 -0.01783538 C267.85057068 -0.01719825 269.9384079 -0.01656951 272.02624512 -0.01594925 C273.05362274 -0.0156407 274.08100036 -0.01533215 275.13951063 -0.01501425 C282.39521646 -0.01328411 289.65091198 -0.01620925 296.90661621 -0.02090836 C305.74342905 -0.0265054 314.58020634 -0.02502562 323.41701508 -0.01434687 C327.92959043 -0.00907424 332.44210642 -0.00706032 336.9546814 -0.01364517 C341.07995745 -0.01957403 345.20511872 -0.01638064 349.33038425 -0.00569007 C350.82833015 -0.00344294 352.3262856 -0.00462142 353.82422543 -0.00944164 C355.84936318 -0.01546198 357.87452783 -0.00813359 359.8996582 0 C361.59196438 0.00048706 361.59196438 0.00048706 363.31845856 0.00098395 C365.9498291 0.25168228 365.9498291 0.25168228 367.9498291 2.25168228 C368.2623291 5.75168228 368.2623291 5.75168228 367.9498291 9.25168228 C364.42140335 11.60396612 362.98889836 11.50215453 358.81063843 11.50336456 C357.51765902 11.50858006 356.2246796 11.51379555 354.892519 11.51916909 C353.44921946 11.51484455 352.00592049 11.51033122 350.56262207 11.50564957 C349.03599333 11.50795252 347.5093657 11.51112794 345.9827404 11.51510406 C341.77669803 11.52348338 337.57074596 11.51931261 333.36470318 11.51313162 C328.83295251 11.50862091 324.30121776 11.515584 319.76947021 11.52109146 C310.88743895 11.53000192 302.00544141 11.52805611 293.12340879 11.52226618 C285.90715984 11.51775618 278.69092037 11.51713391 271.47467041 11.51931381 C270.44905939 11.51962028 269.42344837 11.51992674 268.36675823 11.5202425 C266.28349002 11.52088192 264.20022181 11.52153035 262.11695361 11.52218768 C242.56518281 11.52789582 223.01343074 11.52132551 203.46166301 11.51058695 C186.6719017 11.501651 169.88216804 11.50320291 153.09240723 11.51242447 C133.61235918 11.52311857 114.13232756 11.52734645 94.65227699 11.52119994 C92.57651393 11.52056282 90.50075086 11.51993408 88.42498779 11.51931381 C87.40357409 11.51900526 86.38216039 11.51869671 85.32979476 11.51837881 C78.11913082 11.51664928 70.90847727 11.5195725 63.69781494 11.52427292 C54.91485363 11.52987221 46.13192808 11.52838541 37.34897089 11.51771143 C32.86461829 11.51244186 28.38032541 11.51041975 23.89597321 11.51700974 C19.79535682 11.52294482 15.6948558 11.51973472 11.59424996 11.50905463 C10.10641032 11.50681019 8.61856104 11.5079801 7.13072753 11.51280621 C5.11683153 11.51884042 3.10290844 11.51148799 1.08901978 11.50336456 C-0.03218702 11.50303986 -1.15339382 11.50271515 -2.30857658 11.50238061 C-5.0501709 11.25168228 -5.0501709 11.25168228 -8.0501709 9.25168228 C-8.3626709 5.75168228 -8.3626709 5.75168228 -8.0501709 2.25168228 C-5.31552785 -0.48296076 -3.83037875 0.00110241 0 0 Z " fill="#877eff" transform="translate(76.0501708984375,374.74831771850586)"/>
<path d="M0 0 C1.26053696 -0.00852997 2.52107391 -0.01705994 3.81980896 -0.02584839 C5.22456372 -0.0251493 6.62931839 -0.02422621 8.03407288 -0.02310181 C9.50731753 -0.02908337 10.98055904 -0.03588805 12.45379639 -0.04345703 C16.4620327 -0.0611616 20.47018368 -0.06581426 24.47845531 -0.0670886 C27.82104861 -0.06898487 31.1636219 -0.0763392 34.50620753 -0.08343279 C42.39018072 -0.09973106 50.27410821 -0.10460041 58.15809631 -0.10317993 C66.29929859 -0.10197791 74.44023602 -0.12308843 82.58137125 -0.15466726 C89.56400362 -0.18079026 96.54654928 -0.19154892 103.52923018 -0.19026911 C107.70279812 -0.18975833 111.87613078 -0.19550526 116.04965019 -0.21662521 C119.97396375 -0.23594113 123.89781596 -0.23617821 127.82214546 -0.22159195 C129.26413265 -0.21949447 130.70614821 -0.22426041 132.14808655 -0.23631287 C134.11307103 -0.25167609 136.07821167 -0.24009884 138.04321289 -0.22705078 C139.14400146 -0.22814032 140.24479002 -0.22922985 141.37893581 -0.2303524 C144.08509827 0.26742554 144.08509827 0.26742554 145.97443485 2.13426781 C147.08509827 4.26742554 147.08509827 4.26742554 146.89759827 6.89242554 C146.08509827 9.26742554 146.08509827 9.26742554 144.08509827 11.26742554 C141.52039433 11.52190113 141.52039433 11.52190113 138.2081604 11.52812195 C136.9560376 11.53520676 135.70391479 11.54229156 134.41384888 11.54959106 C133.01853907 11.54729703 131.62322961 11.5447873 130.22792053 11.54208374 C128.7645288 11.54642895 127.30113934 11.55161145 125.8377533 11.55757141 C121.8563668 11.57099354 117.87507504 11.57153651 113.89367032 11.56900811 C110.57344638 11.56794054 107.25324178 11.5728163 103.93302196 11.57761353 C96.10178212 11.58871991 88.27059023 11.58913983 80.43934631 11.58309937 C72.35271838 11.57705794 64.26626436 11.58937223 56.1796661 11.61066943 C49.24374389 11.62826643 42.30787713 11.6342898 35.3719334 11.63103169 C31.22635768 11.62921559 27.080906 11.63188739 22.93535042 11.64574623 C19.03735813 11.6582891 15.13963757 11.65641436 11.24164963 11.64333534 C9.80934369 11.64096221 8.37701884 11.64373051 6.94473457 11.65195847 C4.99285435 11.66236449 3.04089725 11.65255706 1.08901978 11.64164734 C-0.00439445 11.64181508 -1.09780867 11.64198282 -2.22435665 11.64215565 C-4.91490173 11.26742554 -4.91490173 11.26742554 -6.77061558 9.93544292 C-8.52967874 7.37126968 -8.23595045 5.28528352 -7.91490173 2.26742554 C-5.20574948 -0.44172671 -3.79206802 0.01155007 0 0 Z " fill="#877eff" transform="translate(279.91490173339844,63.732574462890625)"/>
<path d="M0 0 C1.25356796 -0.00563965 2.50713593 -0.0112793 3.7986908 -0.01708984 C5.19558773 -0.01320088 6.5924841 -0.00910452 7.98937988 -0.00482178 C9.45439325 -0.00753059 10.91940526 -0.0110909 12.38441467 -0.01544189 C16.36987441 -0.02458132 20.35523092 -0.02101528 24.34069252 -0.01468372 C28.50512604 -0.00963174 32.66955052 -0.01431294 36.83398438 -0.01745605 C43.82834465 -0.02109805 50.82266273 -0.0162905 57.8170166 -0.0067749 C65.91158349 0.0041101 74.00604963 0.00058469 82.10061407 -0.01042771 C89.04161363 -0.01949396 95.9825828 -0.02078912 102.92358637 -0.01555037 C107.07301136 -0.01242702 111.22238894 -0.01203131 115.37181091 -0.01862335 C119.27221853 -0.02438659 123.17249584 -0.0204188 127.07288933 -0.00883484 C128.50722474 -0.00618275 129.94157105 -0.00696265 131.37590218 -0.01136017 C133.3281529 -0.01679523 135.28042749 -0.00878288 137.23266602 0 C138.87417004 0.00113108 138.87417004 0.00113108 140.54883575 0.002285 C143.11633301 0.25396729 143.11633301 0.25396729 145.11633301 2.25396729 C145.42883301 5.75396729 145.42883301 5.75396729 145.11633301 9.25396729 C141.63218541 11.57673235 140.2722323 11.50867769 136.15710449 11.52139282 C134.91202118 11.52992279 133.66693787 11.53845276 132.38412476 11.54724121 C131.00189196 11.54654217 129.61965927 11.5456191 128.23742676 11.54449463 C126.78373875 11.55047801 125.33005392 11.55728311 123.87637329 11.56484985 C119.92604531 11.58253387 115.97580395 11.58720616 112.02544022 11.58848143 C108.73001786 11.59037921 105.43461574 11.59773512 102.13920116 11.60482562 C94.3669196 11.62111535 86.59468437 11.62599394 78.8223877 11.62457275 C70.79761065 11.6233703 62.77310212 11.64449134 54.74839306 11.67606008 C47.86340408 11.70218269 40.97850303 11.71294179 34.09346485 11.71166193 C29.97915524 11.71115123 25.86508434 11.71689425 21.75082397 11.73801804 C17.88312853 11.7573338 14.01590117 11.75757119 10.14818954 11.74298477 C8.72716466 11.74088741 7.30611097 11.74565253 5.88513565 11.75770569 C3.94866943 11.77307029 2.01204474 11.76149101 0.07556152 11.7484436 C-1.55155006 11.75007791 -1.55155006 11.75007791 -3.21153259 11.75174522 C-5.88366699 11.25396729 -5.88366699 11.25396729 -7.76783752 9.38712502 C-8.88366699 7.25396729 -8.88366699 7.25396729 -8.69616699 4.62896729 C-7.03191787 -0.23576093 -4.69762933 0.0032369 0 0 Z " fill="#877eff" transform="translate(298.8836669921875,422.74603271484375)"/>
<path d="M0 0 C6.66411882 5.92664088 9.44855519 12.11577456 10.4375 20.875 C10.10209637 27.87655073 7.57758258 34.77348027 2.8125 39.9375 C-3.77307598 45.74173646 -10.32868467 47.70228895 -19.06640625 47.390625 C-25.484097 46.5360723 -31.47538754 43.65029614 -36 39 C-41.35211663 30.63731777 -43.57592762 23.26204486 -41.421875 13.3359375 C-38.81126976 5.67025121 -33.83583768 0.38671989 -26.578125 -3.1953125 C-17.69936069 -6.33398396 -7.71239831 -5.64162752 0 0 Z M-28.375 13.125 C-30.79042137 17.3984378 -30.73891599 21.20474312 -30 26 C-27.86321143 30.80777429 -24.9385261 33.32906672 -20.21875 35.43359375 C-16.17350611 36.46627045 -12.76777621 35.66098531 -9 34 C-5.83581463 31.44172246 -3.23318282 28.92376353 -2 25 C-1.54395102 20.28749391 -1.50180862 17.99638275 -3.625 13.75 C-6.6190985 10.2831491 -9.30807149 7.52761799 -13.953125 6.6171875 C-20.30207668 6.2536979 -23.74079374 8.97860493 -28.375 13.125 Z " fill="#877eff" transform="translate(241,187)"/>
<path d="M0 0 C0.8552124 -0.00571014 1.7104248 -0.01142029 2.59155273 -0.01730347 C4.00200363 -0.01898026 4.00200363 -0.01898026 5.44094849 -0.02069092 C6.42967957 -0.02565582 7.41841064 -0.03062073 8.43710327 -0.03573608 C11.71850268 -0.05037994 14.99985376 -0.05716323 18.28128052 -0.06268311 C20.55570477 -0.06843249 22.83012901 -0.07419025 25.10455322 -0.07995605 C29.87782009 -0.09047222 34.65107009 -0.09631093 39.42434692 -0.09979248 C45.54691059 -0.10528011 51.66925218 -0.12931143 57.79174614 -0.15776443 C62.49113623 -0.17636827 67.19047258 -0.1815952 71.88989639 -0.18312836 C74.14738302 -0.18616024 76.40486857 -0.1942067 78.66231918 -0.20731354 C81.81786858 -0.22432758 84.9728721 -0.22250507 88.12844849 -0.21600342 C89.06470062 -0.2252182 90.00095276 -0.23443298 90.96557617 -0.243927 C97.24963315 -0.20327324 97.24963315 -0.20327324 100.4944458 1.47521973 C101.91409302 3.14044189 101.91409302 3.14044189 102.41409302 6.14044189 C101.91409302 9.14044189 101.91409302 9.14044189 100.49345398 10.80467224 C96.48085837 12.88266889 92.5984144 12.54918155 88.14431763 12.51275635 C87.1536882 12.51640701 86.16305878 12.52005768 85.14241028 12.52381897 C81.86691158 12.53192711 78.59190711 12.51831281 75.31643677 12.50372314 C73.04247539 12.50320461 70.76851355 12.50372205 68.49455261 12.50523376 C63.72897652 12.50514403 58.96356957 12.49471148 54.19802856 12.47662354 C48.08217497 12.45392359 41.9665683 12.45339452 35.85068417 12.46014118 C31.15561214 12.46347851 26.46059666 12.45685573 21.76553535 12.44701195 C19.51002867 12.44315655 17.2545157 12.44201313 14.99900627 12.44359779 C11.85070628 12.44396762 8.70272596 12.43137158 5.55447388 12.4151001 C4.61776855 12.41757751 3.68106323 12.42005493 2.7159729 12.42260742 C1.85938583 12.41552261 1.00279877 12.40843781 0.12025452 12.40113831 C-0.62396791 12.39908544 -1.36819033 12.39703257 -2.13496494 12.39491749 C-4.08590698 12.14044189 -4.08590698 12.14044189 -7.08590698 10.14044189 C-8.06458851 7.27968051 -8.3072581 5.75341421 -7.27340698 2.89044189 C-5.26846164 -0.0642144 -3.35067738 0.01337612 0 0 Z " fill="#877eff" transform="translate(351.0859069824219,181.85955810546875)"/>
<path d="M0 0 C1.27019737 -0.00856522 1.27019737 -0.00856522 2.5660553 -0.01730347 C3.96248009 -0.01898026 3.96248009 -0.01898026 5.38711548 -0.02069092 C6.36609299 -0.02565582 7.3450705 -0.03062073 8.35371399 -0.03573608 C11.60264785 -0.05037958 14.8515329 -0.05716317 18.10049438 -0.06268311 C20.35249839 -0.06843253 22.60450238 -0.07419028 24.85650635 -0.07995605 C29.58269479 -0.09047212 34.30886619 -0.0963109 39.0350647 -0.09979248 C45.09709518 -0.10528004 51.15890136 -0.12931128 57.22086143 -0.15776443 C61.87392845 -0.17636875 66.52694119 -0.18159523 71.18004227 -0.18312836 C73.41520032 -0.18616014 75.6503573 -0.19420626 77.88547897 -0.20731354 C81.00989706 -0.22432856 84.13376388 -0.22250484 87.25820923 -0.21600342 C88.18511063 -0.2252182 89.11201202 -0.23443298 90.06700134 -0.243927 C96.28804848 -0.20328362 96.28804848 -0.20328362 99.53057861 1.47521973 C100.95205688 3.14044189 100.95205688 3.14044189 101.38955688 6.14044189 C100.90416635 9.46883413 100.54327305 10.14912405 97.95205688 12.14044189 C95.98270416 12.515172 95.98270416 12.515172 93.70120239 12.5146637 C92.83475601 12.52167801 91.96830963 12.52869232 91.0756073 12.53591919 C90.12798019 12.52827545 89.18035309 12.52063171 88.20401001 12.51275635 C87.20377304 12.51640701 86.20353607 12.52005768 85.17298889 12.52381897 C81.85959 12.53193915 78.54667788 12.51830189 75.23330688 12.50372314 C72.93549602 12.50320472 70.6376847 12.50372175 68.33987427 12.50523376 C63.5212442 12.50514397 58.70278121 12.49470068 53.88418579 12.47662354 C47.69992304 12.45393627 41.51590454 12.45339159 35.33161163 12.46014118 C30.58592549 12.46347874 25.84029529 12.45685507 21.09461975 12.44701195 C18.81399325 12.44315598 16.53336053 12.44201337 14.25273132 12.44359779 C11.068401 12.44396763 7.88438672 12.43137089 4.70010376 12.4151001 C3.75247665 12.41757751 2.80484955 12.42005493 1.82850647 12.42260742 C0.96206009 12.41552261 0.09561371 12.40843781 -0.79708862 12.40113831 C-1.926432 12.398059 -1.926432 12.398059 -3.07859039 12.39491749 C-5.04794312 12.14044189 -5.04794312 12.14044189 -8.04794312 10.14044189 C-8.92294312 8.32794189 -8.92294312 8.32794189 -9.04794312 6.14044189 C-6.72412351 1.3821446 -5.2075936 0.02099684 0 0 Z " fill="#877eff" transform="translate(352.0479431152344,277.85955810546875)"/>
<path d="M0 0 C1.27019737 -0.00856522 1.27019737 -0.00856522 2.5660553 -0.01730347 C3.96248009 -0.01898026 3.96248009 -0.01898026 5.38711548 -0.02069092 C6.36609299 -0.02565582 7.3450705 -0.03062073 8.35371399 -0.03573608 C11.60264785 -0.05037958 14.8515329 -0.05716317 18.10049438 -0.06268311 C20.35249839 -0.06843253 22.60450238 -0.07419028 24.85650635 -0.07995605 C29.58269479 -0.09047212 34.30886619 -0.0963109 39.0350647 -0.09979248 C45.09709518 -0.10528004 51.15890136 -0.12931128 57.22086143 -0.15776443 C61.87392845 -0.17636875 66.52694119 -0.18159523 71.18004227 -0.18312836 C73.41520032 -0.18616014 75.6503573 -0.19420626 77.88547897 -0.20731354 C81.00989706 -0.22432856 84.13376388 -0.22250484 87.25820923 -0.21600342 C88.18511063 -0.2252182 89.11201202 -0.23443298 90.06700134 -0.243927 C96.28804848 -0.20328362 96.28804848 -0.20328362 99.53057861 1.47521973 C100.95205688 3.14044189 100.95205688 3.14044189 101.38955688 6.14044189 C100.90416635 9.46883413 100.54327305 10.14912405 97.95205688 12.14044189 C95.98270416 12.515172 95.98270416 12.515172 93.70120239 12.5146637 C92.83475601 12.52167801 91.96830963 12.52869232 91.0756073 12.53591919 C90.12798019 12.52827545 89.18035309 12.52063171 88.20401001 12.51275635 C87.20377304 12.51640701 86.20353607 12.52005768 85.17298889 12.52381897 C81.85959 12.53193915 78.54667788 12.51830189 75.23330688 12.50372314 C72.93549602 12.50320472 70.6376847 12.50372175 68.33987427 12.50523376 C63.5212442 12.50514397 58.70278121 12.49470068 53.88418579 12.47662354 C47.69992304 12.45393627 41.51590454 12.45339159 35.33161163 12.46014118 C30.58592549 12.46347874 25.84029529 12.45685507 21.09461975 12.44701195 C18.81399325 12.44315598 16.53336053 12.44201337 14.25273132 12.44359779 C11.068401 12.44396763 7.88438672 12.43137089 4.70010376 12.4151001 C3.75247665 12.41757751 2.80484955 12.42005493 1.82850647 12.42260742 C0.96206009 12.41552261 0.09561371 12.40843781 -0.79708862 12.40113831 C-1.926432 12.398059 -1.926432 12.398059 -3.07859039 12.39491749 C-5.04794312 12.14044189 -5.04794312 12.14044189 -8.04794312 10.14044189 C-8.92294312 8.32794189 -8.92294312 8.32794189 -9.04794312 6.14044189 C-6.72412351 1.3821446 -5.2075936 0.02099684 0 0 Z " fill="#877eff" transform="translate(352.0479431152344,229.85955810546875)"/>
<path d="M0 0 C1.2554084 -0.00856522 1.2554084 -0.00856522 2.53617859 -0.01730347 C3.9162207 -0.01898026 3.9162207 -0.01898026 5.32414246 -0.02069092 C6.2917601 -0.02565582 7.25937775 -0.03062073 8.25631714 -0.03573608 C11.46797895 -0.05038061 14.67959136 -0.05716373 17.89128113 -0.06268311 C20.11846926 -0.06843293 22.34565737 -0.07419068 24.57284546 -0.07995605 C29.24775931 -0.09047274 33.92265593 -0.09631095 38.59757996 -0.09979248 C44.59001098 -0.1052768 50.58221473 -0.12930084 56.57457447 -0.15776443 C61.17706977 -0.17638237 65.77951025 -0.18159598 70.38204002 -0.18312836 C72.59125193 -0.18615761 74.8004628 -0.19419529 77.00963783 -0.20731354 C80.10032587 -0.22435516 83.19045783 -0.22249817 86.28117371 -0.21600342 C87.65210678 -0.22982559 87.65210678 -0.22982559 89.05073547 -0.243927 C93.78792453 -0.21272026 97.24249432 -0.10882188 100.99674988 3.14044189 C101.49674988 6.14044189 101.49674988 6.14044189 100.99674988 9.14044189 C99.44658552 11.17876654 98.5666471 12.03200137 96.02739716 12.515172 C94.89805378 12.51492039 94.89805378 12.51492039 93.74589539 12.5146637 C92.87944901 12.52167801 92.01300262 12.52869232 91.12030029 12.53591919 C90.17267319 12.52827545 89.22504608 12.52063171 88.248703 12.51275635 C87.24846603 12.51640701 86.24822906 12.52005768 85.21768188 12.52381897 C81.90428299 12.53193915 78.59137088 12.51830189 75.27799988 12.50372314 C72.98018901 12.50320472 70.68237769 12.50372175 68.38456726 12.50523376 C63.56593719 12.50514397 58.7474742 12.49470068 53.92887878 12.47662354 C47.74461603 12.45393627 41.56059754 12.45339159 35.37630463 12.46014118 C30.63061849 12.46347874 25.88498828 12.45685507 21.13931274 12.44701195 C18.85868624 12.44315598 16.57805353 12.44201337 14.29742432 12.44359779 C11.11309399 12.44396763 7.92907972 12.43137089 4.74479675 12.4151001 C3.79716965 12.41757751 2.84954254 12.42005493 1.87319946 12.42260742 C1.00675308 12.41552261 0.1403067 12.40843781 -0.75239563 12.40113831 C-1.88173901 12.398059 -1.88173901 12.398059 -3.0338974 12.39491749 C-5.00325012 12.14044189 -5.00325012 12.14044189 -8.00325012 10.14044189 C-8.87825012 8.32794189 -8.87825012 8.32794189 -9.00325012 6.14044189 C-6.69249413 1.40889391 -5.18348959 0.02114827 0 0 Z " fill="#877eff" transform="translate(352.0032501220703,325.85955810546875)"/>
<path d="M0 0 C1.35670303 0.00135956 1.35670303 0.00135956 2.74081421 0.00274658 C4.16779884 -0.00732925 4.16779884 -0.00732925 5.62361145 -0.01760864 C8.7800005 -0.03666436 11.9361778 -0.04051657 15.09262085 -0.04266357 C17.27976063 -0.04908595 19.46689954 -0.05581387 21.65403748 -0.06283569 C26.24320468 -0.07482723 30.8322965 -0.07851456 35.42147827 -0.07733154 C41.31107324 -0.07712818 47.20018659 -0.10443984 53.08966732 -0.13887596 C57.60802952 -0.1610783 62.12627457 -0.16517114 66.64468575 -0.16411209 C68.81647973 -0.16647775 70.98827649 -0.17535514 73.16001701 -0.19077682 C76.19380616 -0.21030315 79.22654048 -0.20465145 82.26034546 -0.19256592 C83.16278992 -0.20380493 84.06523437 -0.21504395 84.99502563 -0.22662354 C91.05115336 -0.16510327 91.05115336 -0.16510327 93.65855408 2.15957642 C94.85039326 4.9642083 94.54145897 6.43981922 93.5652771 9.29327393 C90.87003482 11.98851621 88.7818145 11.53927851 85.1194458 11.56433105 C84.21340607 11.56028259 83.30736633 11.55623413 82.37387085 11.55206299 C80.94447678 11.55731995 80.94447678 11.55731995 79.48620605 11.56268311 C76.32498975 11.57151146 73.16399583 11.56564735 70.0027771 11.55889893 C67.81324216 11.56024526 65.6237075 11.56218552 63.43417358 11.56469727 C58.84080159 11.56765003 54.24750727 11.56334598 49.65414429 11.55401611 C43.75561847 11.54262153 37.85727463 11.54918019 31.95875549 11.56116104 C27.43615336 11.56837552 22.91359463 11.5660936 18.39099121 11.56090546 C16.2155963 11.55956782 14.04019749 11.56122064 11.86480713 11.56586456 C8.82865912 11.57092301 5.79280907 11.56322911 2.75668335 11.55206299 C1.85064362 11.55611145 0.94460388 11.56015991 0.0111084 11.56433105 C-6.20619543 11.5218014 -6.20619543 11.5218014 -8.4347229 9.29327393 C-8.6847229 5.79327393 -8.6847229 5.79327393 -8.4347229 2.29327393 C-5.74441338 -0.3970356 -3.65712071 0.03790412 0 0 Z " fill="#877eff" transform="translate(166.43472290039063,422.70672607421875)"/>
<path d="M0 0 C0.6489624 -0.00671722 1.2979248 -0.01343445 1.96655273 -0.02035522 C4.11653248 -0.03938735 6.26620097 -0.0432619 8.41625977 -0.04541016 C9.90837229 -0.0518343 11.40048354 -0.05856237 12.89259338 -0.06558228 C16.02233807 -0.07756794 19.15197226 -0.08126177 22.28173828 -0.08007812 C26.29486734 -0.07987482 30.30728916 -0.10718262 34.32025051 -0.14162254 C37.40260582 -0.16384533 40.48478965 -0.16791711 43.56721687 -0.16685867 C45.04682924 -0.16922141 46.52644586 -0.1780827 48.00597954 -0.19352341 C50.0748046 -0.21309265 52.14208831 -0.20738351 54.2109375 -0.1953125 C55.38849106 -0.19816254 56.56604462 -0.20101257 57.77928162 -0.20394897 C60.67016602 0.29052734 60.67016602 0.29052734 62.6207428 2.12167358 C63.67016602 4.29052734 63.67016602 4.29052734 62.92016602 7.47802734 C61.67016602 10.29052734 61.67016602 10.29052734 60.67016602 11.29052734 C58.63077137 11.39518058 56.58772136 11.42908773 54.5456543 11.43579102 C53.23404327 11.44217087 51.92243225 11.44855072 50.57107544 11.4551239 C49.1275435 11.45665261 47.68401108 11.45776655 46.24047852 11.45849609 C44.76935798 11.46170725 43.29823777 11.46507121 41.82711792 11.46858215 C38.73849751 11.4745805 35.64990512 11.47642138 32.5612793 11.47583008 C28.60102626 11.47572852 24.64095276 11.48937115 20.68074226 11.50660229 C17.64044366 11.51771556 14.60018851 11.51974948 11.55987167 11.51922035 C10.09981544 11.52040186 8.63975814 11.52483315 7.17972183 11.53255272 C5.13766024 11.54233673 3.09554627 11.53821443 1.0534668 11.53344727 C-0.69074051 11.53558479 -0.69074051 11.53558479 -2.47018433 11.5377655 C-5.32983398 11.29052734 -5.32983398 11.29052734 -8.32983398 9.29052734 C-8.64233398 5.79052734 -8.64233398 5.79052734 -8.32983398 2.29052734 C-5.55489867 -0.48440797 -3.88741638 0.02518453 0 0 Z " fill="#877eff" transform="translate(76.329833984375,422.70947265625)"/>
<path d="M0 0 C2.4375 1.625 2.4375 1.625 4 4 C4.5625 6.9375 4.5625 6.9375 4 10 C1.9375 12.9375 1.9375 12.9375 -1 15 C-4.8427383 15.06625411 -6.99200716 14.81899419 -10 12.375 C-11.45635054 8.91616747 -10.91305869 6.58701629 -10 3 C-7.67133148 -1.01048467 -4.26353269 -0.52359173 0 0 Z " fill="#877eff" transform="translate(136,62)"/>
<path d="M0 0 C2.68168885 1.60901331 2.96054846 2.8703735 3.875 5.875 C4.02858292 9.71457298 3.59393856 11.1628797 1 14 C-3.11704596 15.29610706 -5.06682027 15.47651731 -8.9375 13.5 C-11 11 -11 11 -11.5625 7.5 C-11 4 -11 4 -9.4375 1.5625 C-6.09493717 -0.58016848 -3.89504791 -0.49573337 0 0 Z " fill="#877eff" transform="translate(100,62)"/>
<path d="M0 0 C2.375 1 2.375 1 4 3 C4.66053097 6.56241421 4.71751909 9.76427268 2.875 12.9375 C-0.45473329 14.82434887 -3.52670732 15.36832317 -7.25 14.4375 C-9.88009423 12.27706545 -10.35365875 10.29634038 -11 7 C-9.45800033 0.83200132 -6.11114782 -0.62358651 0 0 Z " fill="#877eff" transform="translate(172,62)"/>
</svg>
