<?xml version="1.0" encoding="UTF-8"?>
<svg version="1.1" xmlns="http://www.w3.org/2000/svg" width="512" height="512">
<path d="M0 0 C1.01790619 0.00215515 2.03581238 0.0043103 3.08456421 0.00653076 C17.69363523 0.05620146 32.02575853 0.30709809 46.375 3.3125 C47.34985352 3.51117676 48.32470703 3.70985352 49.32910156 3.91455078 C88.38660539 12.08468046 124.82400319 27.71035417 156.375 52.3125 C157.25929688 52.98539063 158.14359375 53.65828125 159.0546875 54.3515625 C174.64162389 66.45260257 189.26666068 80.75087979 201.375 96.3125 C202.15101563 97.2715625 202.92703125 98.230625 203.7265625 99.21875 C238.25804162 142.62975232 256.81395322 197.76040062 256.69067383 253.03979492 C256.6875221 255.97938487 256.71104926 258.9179558 256.73632812 261.85742188 C256.78098737 275.23056192 255.57551542 288.12666711 253.375 301.3125 C253.09281616 303.01805054 253.09281616 303.01805054 252.80493164 304.75805664 C245.77946967 343.86954746 228.79665906 381.05202178 204.375 412.3125 C203.61574219 413.28445313 202.85648437 414.25640625 202.07421875 415.2578125 C196.4868172 422.22469685 190.52713922 428.84356276 184.375 435.3125 C183.83713867 435.87904297 183.29927734 436.44558594 182.74511719 437.02929688 C175.04606301 445.07972325 167.06741331 452.3507533 158.12841797 458.99902344 C156.40190689 460.29234419 154.70200625 461.61499467 153.00390625 462.9453125 C122.04900347 486.84631321 84.66916274 502.15919623 46.375 509.3125 C45.56998047 509.47476074 44.76496094 509.63702148 43.93554688 509.80419922 C13.88950647 515.6788185 -20.75595352 514.58629779 -50.625 508.3125 C-52.14794678 507.99901611 -52.14794678 507.99901611 -53.70166016 507.67919922 C-110.88001329 495.5300505 -164.73467798 462.73512213 -200.625 416.3125 C-201.38683594 415.37921875 -202.14867187 414.4459375 -202.93359375 413.484375 C-228.53008388 381.53995532 -245.03851113 342.35475277 -252.625 302.3125 C-252.78871094 301.50312988 -252.95242187 300.69375977 -253.12109375 299.85986328 C-258.59069558 271.87335724 -258.46977511 238.21828161 -252.625 210.3125 C-252.42632324 209.33764648 -252.22764648 208.36279297 -252.02294922 207.35839844 C-243.85465634 168.30967546 -228.23596689 131.84936729 -203.625 100.3125 C-202.94050781 99.41660156 -202.25601563 98.52070312 -201.55078125 97.59765625 C-189.43546331 82.04188291 -175.20603153 67.39167807 -159.625 55.3125 C-158.66722656 54.53777344 -157.70945312 53.76304688 -156.72265625 52.96484375 C-112.25225288 17.57918861 -56.46542875 -0.21501003 0 0 Z M-152.046875 89.88671875 C-154.29219361 91.99935944 -156.5840021 94.01030616 -158.9375 96 C-162.90657352 99.45562048 -166.25343285 103.28188166 -169.625 107.3125 C-170.37523437 108.17488281 -171.12546875 109.03726563 -171.8984375 109.92578125 C-210.48765734 154.90596021 -229.22483029 213.57346101 -225.4140625 272.57861328 C-221.41673437 323.26443111 -200.9534875 371.75979937 -165.984375 408.80078125 C-164.05141387 410.85855279 -162.22780862 412.94486612 -160.4375 415.125 C-157.19053483 418.9498149 -153.4522147 422.08427277 -149.625 425.3125 C-148.68785156 426.1375 -147.75070313 426.9625 -146.78515625 427.8125 C-101.93623461 467.07036473 -42.55595714 485.82114524 16.66748047 482.10595703 C32.9478708 480.8184213 48.65922655 477.69868216 64.375 473.3125 C65.18340332 473.08723633 65.99180664 472.86197266 66.82470703 472.62988281 C99.04812024 463.36781474 128.57448162 445.60209239 152.86328125 422.671875 C154.92105279 420.73891387 157.00736612 418.91530862 159.1875 417.125 C163.0123149 413.87803483 166.14677277 410.1397147 169.375 406.3125 C170.2 405.37535156 171.025 404.43820312 171.875 403.47265625 C211.1146032 358.64459693 229.9896588 299.28114052 226.1640625 240.04638672 C222.16673437 189.36056889 201.7034875 140.86520063 166.734375 103.82421875 C164.80141387 101.76644721 162.97780862 99.68013388 161.1875 97.5 C157.94053483 93.6751851 154.2022147 90.54072723 150.375 87.3125 C148.96927734 86.075 148.96927734 86.075 147.53515625 84.8125 C74.00331394 20.45616794 -34.42314606 13.55961662 -152.046875 89.88671875 Z " fill="#877eff" transform="translate(255.625,-0.3125)"/>
<path d="M0 0 C4.83858548 2.32968931 7.67031069 5.16141452 10 10 C11.60904086 18.7967821 7.91818939 25.24401746 3.75 32.75 C3.10275836 33.95060197 2.45735972 35.15219916 1.8137207 36.35473633 C-0.10007897 39.91664683 -2.04888027 43.45839889 -4 47 C-5.00257683 48.84175457 -6.00399098 50.68414283 -7.00390625 52.52734375 C-8.41321817 55.12036049 -9.82565939 57.7114449 -11.24707031 60.29785156 C-15.74756938 68.48834725 -20.12653094 76.74127258 -24.5 85 C-29.73717422 94.88742994 -35.01820206 104.74625111 -40.40234375 114.5546875 C-44.84209874 122.66415868 -49.17189607 130.83062212 -53.5 139 C-59.83328984 150.94995339 -66.20197262 162.87766261 -72.74365234 174.71533203 C-73.94267346 176.8957517 -75.12327166 179.08525366 -76.30078125 181.27734375 C-76.99149614 182.53944111 -77.68285012 183.80118904 -78.375 185.0625 C-79.22191406 186.62677734 -79.22191406 186.62677734 -80.0859375 188.22265625 C-85.12340864 195.53212968 -92.95333259 198.86316313 -100.625 202.875 C-101.87409457 203.53505721 -103.1227851 204.19587953 -104.37109375 204.85742188 C-106.96101495 206.22919693 -109.55263158 207.59768641 -112.14550781 208.96386719 C-118.11343555 212.11187145 -124.05523679 215.3085167 -130 218.5 C-132.33060306 219.74893327 -134.66133266 220.99763044 -136.9921875 222.24609375 C-138.14686523 222.86468262 -139.30154297 223.48327148 -140.49121094 224.12060547 C-143.42772922 225.69347756 -146.36445033 227.26596924 -149.30133057 228.83816528 C-162.28013862 235.78612431 -175.25203672 242.7465933 -188.21142578 249.73071289 C-197.29489597 254.62440324 -206.38952014 259.49713602 -215.48632812 264.3659668 C-221.46354905 267.56619367 -227.43788203 270.77158009 -233.40625 273.98828125 C-234.00638916 274.31170502 -234.60652832 274.63512878 -235.22485352 274.96835327 C-238.09313945 276.51438285 -240.96091501 278.06135083 -243.828125 279.609375 C-244.84390625 280.15722656 -245.8596875 280.70507812 -246.90625 281.26953125 C-248.24139648 281.99039917 -248.24139648 281.99039917 -249.60351562 282.72583008 C-255.37988116 285.79702524 -259.38252649 286.83765487 -266 286 C-270.83858548 283.67031069 -273.67031069 280.83858548 -276 276 C-277.60903152 267.20326898 -273.91827923 260.75592898 -269.75 253.25 C-269.10423002 252.05232421 -268.46029547 250.85365713 -267.81811523 249.65405273 C-265.90255643 246.08939077 -263.9519764 242.54484603 -262 239 C-260.97379634 237.11147191 -259.94893768 235.22221199 -258.92578125 233.33203125 C-256.9998914 229.78201893 -255.06239241 226.23868131 -253.1171875 222.69921875 C-249.59677678 216.28130878 -246.13992827 209.82966025 -242.6875 203.375 C-242.37323059 202.78762054 -242.05896118 202.20024109 -241.73516846 201.59506226 C-240.13215347 198.59881802 -238.52973446 195.60225573 -236.92773438 192.60546875 C-227.80862776 175.5477821 -218.66673496 158.50239266 -209.48828125 141.4765625 C-207.08412581 137.01606952 -204.68651354 132.55213289 -202.29296875 128.0859375 C-199.37447768 122.64197008 -196.44399013 117.20467523 -193.50097656 111.77392578 C-192.56693192 110.04773592 -191.63601893 108.3198431 -190.70996094 106.58935547 C-189.65200537 104.6151907 -188.57933756 102.6500299 -187.5 100.6875 C-186.9534375 99.68074219 -186.406875 98.67398438 -185.84375 97.63671875 C-181.98144363 92.11329333 -176.62183756 89.00850013 -170.75 85.99609375 C-170.06388641 85.63640503 -169.37777283 85.27671631 -168.67086792 84.90612793 C-167.20798273 84.14015389 -165.74340803 83.37739909 -164.27728271 82.61764526 C-161.18396381 81.01460949 -158.09890073 79.39598321 -155.01339722 77.77796936 C-153.47158437 76.96953201 -151.92936987 76.16186018 -150.38674927 75.35496521 C-144.51345525 72.2804452 -138.68182546 69.13589675 -132.875 65.9375 C-123.9615969 61.03908904 -114.98737935 56.26073191 -106 51.5 C-96.01768323 46.21161582 -86.06138004 40.88291307 -76.15527344 35.45263672 C-67.70497438 30.82494224 -59.21180258 26.27817546 -50.71582031 21.73510742 C-49.53449383 21.10337414 -48.35317875 20.47161953 -47.171875 19.83984375 C-46.58504944 19.52601242 -45.99822388 19.21218109 -45.39361572 18.88883972 C-41.11790425 16.60104553 -36.84681291 14.30477633 -32.578125 12.00390625 C-31.97897278 11.68097595 -31.37982056 11.35804565 -30.76251221 11.02532959 C-27.8987899 9.48151946 -25.03558596 7.93675459 -22.17285156 6.39111328 C-21.15674805 5.84310059 -20.14064453 5.29508789 -19.09375 4.73046875 C-18.20365234 4.24989014 -17.31355469 3.76931152 -16.39648438 3.27416992 C-10.62011884 0.20297476 -6.61747351 -0.83765487 0 0 Z M-51.40625 56.7890625 C-52.52918457 57.39371338 -53.65211914 57.99836426 -54.80908203 58.62133789 C-56.03942332 59.28916023 -57.26972835 59.95704938 -58.5 60.625 C-59.77045821 61.31085901 -61.04113171 61.99631936 -62.31201172 62.68139648 C-64.93150097 64.09421514 -67.54975267 65.5092877 -70.16699219 66.92626953 C-74.75511768 69.40979119 -79.34995729 71.88078467 -83.94482422 74.35180664 C-87.14640875 76.07401628 -90.34678144 77.79845922 -93.546875 79.5234375 C-97.93056348 81.88604015 -102.31612717 84.24511068 -106.703125 86.6015625 C-119.84259031 93.66201631 -132.94691668 100.78102615 -146 108 C-141.12275563 113.8797505 -135.86113122 119.26880817 -130.4453125 124.65234375 C-129.54376434 125.55247696 -128.64221619 126.45261017 -127.71334839 127.38002014 C-125.33801783 129.75072823 -122.96054595 132.11924515 -120.58197021 134.48669434 C-118.14655283 136.91180728 -115.71403088 139.33982085 -113.28125 141.76757812 C-108.52347231 146.51437128 -103.7628462 151.25829281 -99 156 C-96.54689537 153.63867255 -95.05279297 151.49624389 -93.50390625 148.44921875 C-92.79947388 147.07793823 -92.79947388 147.07793823 -92.08081055 145.67895508 C-91.57976807 144.6917749 -91.07872559 143.70459473 -90.5625 142.6875 C-89.47826923 140.57985031 -88.39228928 138.47309965 -87.3046875 136.3671875 C-86.75264648 135.29823242 -86.20060547 134.22927734 -85.63183594 133.12792969 C-83.211646 128.48887023 -80.70697461 123.89819914 -78.1875 119.3125 C-72.95145995 109.76936683 -67.79772237 100.18361264 -62.67041016 90.58178711 C-59.52357153 84.69194551 -56.35942224 78.81250652 -53.15625 72.953125 C-52.55095459 71.84437012 -51.94565918 70.73561523 -51.32202148 69.59326172 C-50.17143648 67.48877836 -49.01743999 65.38615565 -47.85961914 63.28564453 C-47.35035889 62.35349121 -46.84109863 61.42133789 -46.31640625 60.4609375 C-45.86724854 59.64415527 -45.41809082 58.82737305 -44.95532227 57.98583984 C-43.85549584 56.06689729 -43.85549584 56.06689729 -44 54 C-46.95540775 54 -48.8128666 55.3863388 -51.40625 56.7890625 Z M-168 130 C-175.18313425 143.32455492 -182.35574334 156.6545548 -189.5 170 C-194.41049108 179.16998698 -199.32350837 188.33859691 -204.25 197.5 C-205.10682373 199.09424805 -205.10682373 199.09424805 -205.98095703 200.72070312 C-208.73245622 205.82983931 -211.50399196 210.9262722 -214.3203125 216 C-215.0952002 217.39702148 -215.0952002 217.39702148 -215.88574219 218.82226562 C-216.85375029 220.56277593 -217.82555061 222.30118445 -218.80175781 224.03710938 C-219.22553711 224.79830078 -219.64931641 225.55949219 -220.0859375 226.34375 C-220.4576709 227.00568359 -220.8294043 227.66761719 -221.21240234 228.34960938 C-222.14356335 229.99605199 -222.14356335 229.99605199 -222 232 C-217.79883268 230.70434195 -214.06626742 229.10853247 -210.203125 227.015625 C-209.09308105 226.41741943 -207.98303711 225.81921387 -206.83935547 225.20288086 C-205.64286489 224.5519918 -204.44641412 223.90102958 -203.25 223.25 C-201.99780651 222.57319022 -200.74536086 221.89684676 -199.49267578 221.22094727 C-196.91666137 219.83020007 -194.34203902 218.43692712 -191.76855469 217.04150391 C-187.20557599 214.56805778 -182.63432824 212.11005105 -178.06298828 209.65209961 C-174.86384158 207.93149865 -171.66615581 206.2082086 -168.46875 204.484375 C-164.03385912 202.09407145 -159.59605349 199.70929089 -155.15625 197.328125 C-143.3693452 191.00251979 -131.61701423 184.63328003 -120 178 C-124.87336087 172.13029878 -130.12056808 166.73395165 -135.51953125 161.34765625 C-136.41870773 160.44752304 -137.31788422 159.54738983 -138.24430847 158.61997986 C-140.13325439 156.73035658 -142.02316308 154.84176184 -143.91479492 152.95483398 C-146.34385209 150.53152267 -148.76832574 148.10368257 -151.19153309 145.67452335 C-153.50677961 143.35481276 -155.82581218 141.038895 -158.14453125 138.72265625 C-159.01737259 137.84779068 -159.89021393 136.97292511 -160.789505 136.07154846 C-161.99161873 134.87416298 -161.99161873 134.87416298 -163.21801758 133.65258789 C-163.92606033 132.94534073 -164.63410309 132.23809357 -165.36360168 131.50941467 C-166.751469 129.88699807 -166.751469 129.88699807 -168 130 Z " fill="#877eff" transform="translate(389,113)"/>
</svg>
