<?xml version="1.0" encoding="UTF-8"?>
<svg  version="1.1" xmlns="http://www.w3.org/2000/svg" width="512" height="512">
<path d="M0 0 C1.58276515 -0.00627547 3.16552886 -0.0129232 4.74829102 -0.01991272 C9.91551718 -0.04081207 15.08274319 -0.05129607 20.25 -0.0612793 C22.03564468 -0.06533098 23.82128921 -0.06944802 25.60693359 -0.07362938 C33.99238295 -0.09264338 42.37782367 -0.10688698 50.76329041 -0.11524135 C60.4211998 -0.12502501 70.07888072 -0.15138983 79.73670959 -0.19174224 C87.21977427 -0.22192961 94.70277346 -0.23671237 102.18589783 -0.24002236 C106.64796128 -0.2423681 111.10977955 -0.251268 115.57177734 -0.27648354 C119.76784995 -0.29981804 123.9635167 -0.30397607 128.15963745 -0.29372215 C129.69425815 -0.29322813 131.22889925 -0.29950898 132.76345825 -0.3132782 C150.38421917 -0.46247326 150.38421917 -0.46247326 157.11621094 5.95641613 C162.8577354 12.24347421 163.76122214 17.1940407 163.62890625 25.6887207 C162.93878205 32.04213218 159.91047551 35.84224601 155.3125 40.05200195 C150.15856076 43.62820469 145.62589828 44.4267004 139.42111206 44.43528748 C138.75883327 44.43896318 138.09655447 44.44263888 137.41420662 44.44642597 C135.20818693 44.4563584 133.00242167 44.45226467 130.79638672 44.44824219 C129.2090783 44.45263217 127.62177219 44.45793532 126.0344696 44.46408081 C122.62145455 44.47556372 119.20850143 44.481039 115.79546738 44.4819622 C110.38963971 44.48390771 104.98393941 44.50198897 99.57815552 44.52272034 C86.14708964 44.57185018 72.71598913 44.60274224 59.28485107 44.62402344 C48.85231049 44.64058118 38.41987919 44.6635021 27.98741162 44.70704418 C22.62338688 44.72872391 17.2595702 44.73688737 11.89550471 44.73465145 C8.54393156 44.73632885 5.19249196 44.7504429 1.84096718 44.76786423 C0.29795753 44.77342129 -1.24508031 44.77398858 -2.78809166 44.76892662 C-21.29699871 44.71461873 -37.19066385 49.0717717 -50.76025391 62.06005859 C-64.67565971 75.92101487 -70.01563759 91.89081156 -70.15123773 111.24200821 C-70.15679287 114.37666995 -70.14764691 117.51110224 -70.13818359 120.64575195 C-70.14225388 122.91373954 -70.14759831 125.18172515 -70.15411377 127.44970703 C-70.16773876 133.58188786 -70.16250859 139.71391652 -70.15297651 145.84609985 C-70.14535493 152.2786702 -70.15243245 158.71122795 -70.15713501 165.14379883 C-70.1629339 176.63475575 -70.15363997 188.12563522 -70.138357 199.61658001 C-70.12495558 210.01435893 -70.12728422 220.41203734 -70.14111328 230.80981445 C-70.15720369 242.91334448 -70.16312484 255.01679571 -70.15427649 267.12033844 C-70.14961138 273.51677359 -70.14894312 279.91313966 -70.15888596 286.30957031 C-70.16758348 292.32448176 -70.16148277 298.33920431 -70.14420319 304.35409546 C-70.14025322 306.55504036 -70.14134668 308.75600129 -70.14799118 310.9569397 C-70.20408401 331.4327877 -67.53867746 348.85887431 -52.86694336 364.18725586 C-39.00598708 378.10266167 -23.0361904 383.44263955 -3.68499374 383.57823968 C-0.550332 383.58379482 2.58410028 383.57464886 5.71875 383.56518555 C7.98673759 383.56925583 10.25472319 383.57460026 12.52270508 383.58111572 C18.65488591 383.59474071 24.78691456 383.58951055 30.9190979 383.57997847 C37.35166824 383.57235689 43.78422599 383.5794344 50.21679688 383.58413696 C61.7077538 383.58993585 73.19863327 383.58064193 84.68957806 383.56535895 C95.08735698 383.55195753 105.48503539 383.55428617 115.8828125 383.56811523 C127.98634253 383.58420564 140.08979376 383.59012679 152.19333649 383.58127844 C158.58977164 383.57661334 164.98613771 383.57594507 171.38256836 383.58588791 C177.3974798 383.59458544 183.41220236 383.58848472 189.42709351 383.57120514 C191.6280384 383.56725518 193.82899933 383.56834864 196.02993774 383.57499313 C216.50578575 383.63108596 233.93187236 380.96567941 249.26025391 366.29394531 C262.25746203 353.34759391 268.4803143 337.84386372 268.63951027 319.48272276 C268.64237552 317.31265578 268.6307719 315.14293276 268.61889648 312.97290039 C268.62137066 311.38954407 268.62521529 309.80618941 268.63031006 308.22283936 C268.63858471 304.84045659 268.63789518 301.45824257 268.63012505 298.07585907 C268.61845029 292.72068118 268.63077905 287.36571624 268.64674377 282.01055908 C268.68277501 268.71847781 268.6891668 255.42640309 268.68664551 242.13427734 C268.68493214 231.78225062 268.69209619 221.43040023 268.72662407 211.07842278 C268.74336319 205.76113932 268.74167242 200.44428746 268.72580135 195.12700605 C268.71998697 191.81598787 268.73077451 188.50517265 268.74604797 185.19419098 C268.74975976 183.66603185 268.74670811 182.13783805 268.73617744 180.60971069 C268.62315396 163.03048406 268.62315396 163.03048406 275.02930355 156.31054306 C281.31704105 150.56967337 286.26669305 149.66577443 294.76171875 149.7980957 C301.11513022 150.48821991 304.91524406 153.51652644 309.125 158.11450195 C312.68928133 163.25126034 313.4999844 167.76964253 313.50396729 173.95446777 C313.50708727 174.61125188 313.51020725 175.26803599 313.51342177 175.94472265 C313.52136026 178.13226808 313.51509428 180.31953288 313.50878906 182.50708008 C313.51150098 184.0812903 313.51506305 185.65549925 313.51940918 187.22970581 C313.52851752 191.49878113 313.52499374 195.76775963 313.51865101 200.03683662 C313.51357585 204.51727681 313.51828733 208.99770889 313.52142334 213.47814941 C313.52506157 221.01026896 313.52027076 228.5423493 313.51074219 236.07446289 C313.49988952 244.75281453 313.50336053 253.43107195 313.514395 262.10942125 C313.52350981 269.57977107 313.5247318 277.05009271 313.51951766 284.5204463 C313.51641684 288.97312427 313.51593557 293.42575818 313.52259064 297.87843323 C313.52842356 302.07440655 313.52425997 306.27026028 313.51280212 310.46622086 C313.51018564 311.99549792 313.51086818 313.52478527 313.51532745 315.05405807 C313.548015 327.41658678 312.72546581 339.65771441 309.125 351.55200195 C308.91327148 352.25550781 308.70154297 352.95901367 308.48339844 353.68383789 C299.81647078 381.00111621 280.60809596 402.93864913 255.49365234 416.40332031 C249.38172439 419.54161494 243.20517488 422.0716195 236.625 424.05200195 C235.99368164 424.24310547 235.36236328 424.43420898 234.71191406 424.63110352 C220.5663628 428.557652 206.31491962 428.46547686 191.76953125 428.43579102 C189.52419929 428.43850567 187.27886822 428.44206926 185.03353882 428.44641113 C178.97161524 428.45548093 172.90976022 428.45201329 166.84783554 428.44565296 C160.48294652 428.44056485 154.1180631 428.4452922 147.75317383 428.44842529 C136.38444888 428.45228891 125.01575851 428.44610073 113.64704049 428.43590662 C103.3659153 428.42697271 93.08483531 428.42852525 82.80371094 428.43774414 C70.82761163 428.44847805 58.8515397 428.45241481 46.87543392 428.44651961 C40.54940139 428.44341274 34.22339989 428.44295515 27.89736938 428.44959259 C21.94812572 428.45539946 15.99896679 428.45130833 10.04973221 428.43980408 C7.87542486 428.43717529 5.70111029 428.43789184 3.52680588 428.44232941 C-10.63645518 428.46855498 -24.44378689 428.19337989 -38.125 424.05200195 C-38.82850586 423.84027344 -39.53201172 423.62854492 -40.25683594 423.41040039 C-67.57411426 414.74347273 -89.51164718 395.53509791 -102.97631836 370.4206543 C-106.11461299 364.30872634 -108.64461755 358.13217684 -110.625 351.55200195 C-110.81610352 350.92068359 -111.00720703 350.28936523 -111.20410156 349.63891602 C-115.12255799 335.52251674 -115.04343087 321.29192105 -115.0246582 306.77587891 C-115.02901292 304.53865897 -115.03419858 302.30144052 -115.04014587 300.06422424 C-115.05346707 294.02263093 -115.05412211 287.98110045 -115.05158257 281.93949533 C-115.05050793 276.87796507 -115.05540892 271.81644727 -115.060188 266.75491971 C-115.07189148 254.12082524 -115.07107181 241.48676892 -115.06463119 228.85267504 C-115.05946778 217.92500242 -115.07070783 206.99741909 -115.08972941 196.06976411 C-115.10918636 184.80412883 -115.11705977 173.53853444 -115.11360615 162.27287835 C-115.11180221 155.96622769 -115.11433984 149.65965878 -115.12832069 143.35302162 C-115.14099097 137.41604538 -115.13886876 131.47924641 -115.12590981 125.54227257 C-115.12356417 123.37812614 -115.12620531 121.21396688 -115.13453293 119.04983521 C-115.19298751 102.66201501 -114.75460168 85.78820318 -108.5625 70.36450195 C-108.26206787 69.5866333 -107.96163574 68.80876465 -107.65209961 68.00732422 C-103.06764614 56.52319163 -96.80571323 46.57250748 -88.75 37.17700195 C-88.27175781 36.56598633 -87.79351562 35.9549707 -87.30078125 35.32543945 C-71.66380897 15.70081522 -45.42107918 4.09527398 -21.07539368 0.65823364 C-14.0718861 -0.0977898 -7.03508989 0.01231892 0 0 Z " fill="#877eff" transform="translate(156.75,41.822998046875)"/>
<path d="M0 0 C11.09836497 7.74039813 17.96821619 19.89284615 20.61328125 33.05078125 C22.59984754 48.20085754 19.2707607 61.87360857 10 74 C5.52493784 79.24314695 0.59324329 84.07773574 -4.25927734 88.96728516 C-5.70813974 90.44125654 -7.15625466 91.91596299 -8.60368347 93.39134216 C-13.33350941 98.20475306 -18.08413952 102.9973581 -22.8359375 107.7890625 C-24.48080615 109.450144 -26.12554644 111.11135261 -27.77016068 112.772686 C-35.50354755 120.58215874 -43.24646761 128.38202387 -51.00126398 136.17023718 C-59.90584092 145.11383757 -68.77635824 154.0895046 -77.61918104 163.09415781 C-84.48718159 170.0834281 -91.38620344 177.04111081 -98.30850375 183.976601 C-102.42780271 188.10523274 -106.53324415 192.24558608 -110.60612106 196.42006302 C-142.45688889 229.0241767 -142.45688889 229.0241767 -163.29953766 233.37831306 C-168.14913775 234.49476374 -172.77998514 236.27149135 -177.4609375 237.94140625 C-180.18859748 238.85756516 -182.92061316 239.75943482 -185.65332031 240.66040039 C-187.495183 241.27088502 -189.3346581 241.88861286 -191.171875 242.51293945 C-214.53803415 250.4491934 -214.53803415 250.4491934 -224.3125 246.4375 C-230.1501705 243.05716513 -233.74593996 238.27949601 -236 232 C-238.10364722 221.25394956 -232.90730388 210.23375812 -229.5 200.25 C-228.85041187 198.31440474 -228.20189704 196.37844895 -227.55444336 194.44213867 C-226.28602626 190.65736792 -225.00786482 186.8761013 -223.72216797 183.09716797 C-222.28387171 178.86004612 -220.89668924 174.61002563 -219.53515625 170.34765625 C-218.87829554 168.33571165 -218.22082318 166.32396654 -217.5625 164.3125 C-217.1603125 163.01844238 -217.1603125 163.01844238 -216.75 161.69824219 C-212.77507063 149.91267262 -201.54964143 141.38931126 -192.96166992 132.78466797 C-191.53827519 131.35499893 -190.11506752 129.92514363 -188.69203186 128.49511719 C-184.04174342 123.82391368 -179.38623275 119.15793247 -174.73046875 114.4921875 C-173.12250357 112.88017108 -171.51457133 111.26812181 -169.90667152 109.65604019 C-162.35512329 102.08547365 -154.80118937 94.5172976 -147.24430293 86.95205963 C-138.53907742 78.23705213 -129.84220379 69.5138195 -121.15228957 60.78354537 C-114.4202403 54.02130985 -107.68050798 47.2667937 -100.93500406 40.51797974 C-96.91238631 36.49301594 -92.89311573 32.46484089 -88.88194847 28.42846298 C-85.10926999 24.63245276 -81.32711886 20.84614021 -77.5376339 17.06690979 C-76.15313144 15.68290143 -74.77201177 14.29549898 -73.39465714 12.90437698 C-52.30988192 -8.37921804 -27.43770976 -16.50154459 0 0 Z M-39.08547974 40.31684875 C-39.95873282 41.17500357 -39.95873282 41.17500357 -40.84962738 42.05049485 C-42.79854973 43.97312377 -44.72531146 45.91652844 -46.65283203 47.8605957 C-48.04499088 49.24298789 -49.43841489 50.62410699 -50.83300781 52.00404358 C-54.61978347 55.75914955 -58.38720972 59.53312688 -62.15056849 63.31168389 C-65.2956093 66.46586845 -68.45002412 69.61059111 -71.60452926 72.75530595 C-79.05048727 80.17833551 -86.4810555 87.61652311 -93.90185547 95.06469727 C-101.54967974 102.74028366 -109.2207247 110.392064 -116.90409195 118.03205806 C-123.50389135 124.59603322 -130.0899312 131.17358788 -136.6649884 137.76234692 C-140.5901094 141.69550138 -144.51994705 145.62361188 -148.4626503 149.53914833 C-152.1737902 153.22607603 -155.86734209 156.92978136 -159.54832458 160.64681053 C-160.89832795 162.00443869 -162.25425545 163.35620692 -163.61661911 164.70143127 C-173.90444251 174.74590041 -173.90444251 174.74590041 -179 188 C-179 188.99 -179 189.98 -179 191 C-177.62293175 190.73988711 -176.24841445 190.46626234 -174.875 190.1875 C-174.10929687 190.03667969 -173.34359375 189.88585937 -172.5546875 189.73046875 C-166.46778334 187.99002368 -162.31440299 184.75392934 -157.92556763 180.32670593 C-157.3446602 179.75259517 -156.76375276 179.17848441 -156.16524208 178.58697635 C-154.22815472 176.6688209 -152.30188981 174.7401618 -150.37548828 172.8112793 C-148.98605529 171.43082595 -147.59600963 170.05098901 -146.20539856 168.67172241 C-142.4361378 164.92893602 -138.67663659 161.17649261 -134.91963434 157.42140555 C-131.78301896 154.2876407 -128.64232181 151.15798144 -125.50182235 148.02810985 C-118.09582695 140.64652765 -110.69839502 133.25643676 -103.30566406 125.86157227 C-95.67460171 118.22870521 -88.02694213 110.61275267 -80.37135327 103.00449246 C-73.80007765 96.47240135 -67.24037721 89.928839 -60.68962467 83.37616664 C-56.77640945 79.46218561 -52.8586512 75.55302999 -48.92923355 71.65530968 C-45.23710164 67.99215319 -41.55955814 64.31496213 -37.89284325 60.62636948 C-36.54353886 59.27391968 -35.18907313 57.92659713 -33.82918358 56.58479118 C-31.97612511 54.75479245 -30.14244217 52.9073472 -28.31253052 51.054245 C-27.76799953 50.52514469 -27.22346853 49.99604439 -26.6624366 49.45091075 C-24.16265979 46.88038353 -23.04940195 45.36800634 -22.56640434 41.77004719 C-22.81029703 38.91181352 -22.81029703 38.91181352 -24.625 36.625 C-30.61461259 32.52684402 -34.66528457 35.79117681 -39.08547974 40.31684875 Z " fill="#877eff" transform="translate(449,51)"/>
</svg>
