<?xml version="1.0" encoding="UTF-8"?>
<svg version="1.1" xmlns="http://www.w3.org/2000/svg" width="512" height="512">
<path d="M0 0 C2.74232901 2.11318445 5.12830598 4.49205198 7.53930664 6.97167969 C8.23312439 7.6647673 8.92694214 8.35785492 9.64178467 9.07194519 C11.9099791 11.34359596 14.1599888 13.63237861 16.41015625 15.921875 C17.98803343 17.50908714 19.56702528 19.09519186 21.14707947 20.68023682 C25.28619608 24.83836889 29.41007105 29.01129926 33.53088379 33.18756104 C37.74515834 37.45314493 41.97376876 41.70446516 46.20117188 45.95703125 C54.48148919 54.29084013 62.74576448 62.64036319 71 71 C73.85184491 69.70579092 75.89186902 68.35140504 78.08465576 66.12220764 C78.66758392 65.53480301 79.25051208 64.94739838 79.85110474 64.3421936 C80.47870697 63.69954559 81.1063092 63.05689758 81.75292969 62.39477539 C82.42341339 61.71655228 83.09389709 61.03832916 83.78469849 60.33955383 C85.2392981 58.86730923 86.69168446 57.39287537 88.14211273 55.91652107 C90.4407953 53.57841143 92.74693127 51.2479058 95.05548096 48.91954041 C101.61811489 42.29887685 108.17110774 35.66879739 114.70898438 29.02368164 C118.70990396 24.95821274 122.72301285 20.90511691 126.74399567 16.85949516 C128.27164557 15.31760973 129.79461105 13.77106811 131.31270599 12.21977425 C133.44021268 10.04640293 135.5828789 7.88909799 137.72949219 5.73461914 C138.65875015 4.77368347 138.65875015 4.77368347 139.60678101 3.79333496 C144.7757404 -1.34097664 149.51371755 -3.60638747 156.875 -4.4375 C162.71922843 -4.16139472 168.45966345 -2.20580663 172.8984375 1.6484375 C177.30449241 6.57032323 179.28755688 11.14058989 179.375 17.8125 C179.40335938 18.78832031 179.43171875 19.76414062 179.4609375 20.76953125 C178.20418319 29.57746191 172.52425907 35.04579139 166.45532227 41.03051758 C165.59470184 41.89493469 164.73408142 42.75935181 163.84738159 43.64996338 C161.50129191 46.00216359 159.14668486 48.34513315 156.78739285 50.68404603 C154.31273938 53.14103294 151.8487355 55.60865927 149.38328552 58.07487488 C145.24497976 62.21131251 141.09903115 66.33995985 136.94799805 70.46362305 C132.15499694 75.22513703 127.37256625 79.99706039 122.59601742 84.77507478 C117.49840421 89.87404055 112.39320239 94.96535602 107.28574252 100.05445647 C105.81905534 101.51688985 104.35378641 102.98073146 102.88882637 104.44489479 C100.15655087 107.17478158 97.41581158 109.89607182 94.67407227 112.61645508 C93.46213951 113.82974739 93.46213951 113.82974739 92.22572327 115.06755066 C91.47577087 115.80897308 90.72581848 116.55039551 89.95314026 117.31428528 C89.30662789 117.95744596 88.66011553 118.60060663 87.99401188 119.26325703 C82.8986656 123.70119791 78.37877457 125.13257612 71.75 125.3125 C70.85796875 125.34988281 69.9659375 125.38726562 69.046875 125.42578125 C60.37662337 124.21416916 54.87565464 118.45306113 48.98535156 112.50292969 C48.12254074 111.64712814 47.25972992 110.7913266 46.37077332 109.90959167 C44.02250526 107.57584433 41.68350809 105.23353941 39.34888554 102.88618755 C36.89442585 100.42154146 34.43015351 97.96673677 31.96746826 95.51031494 C27.83486374 91.38497048 23.71072507 87.25130365 19.59130859 83.11279297 C14.84083899 78.34055781 10.07613167 73.58290303 5.30377412 68.83256412 C1.19341646 64.74040735 -2.90903371 60.64044575 -7.00507569 56.53395963 C-9.44567164 54.08715447 -11.88882557 51.64306792 -14.33916473 49.20601654 C-17.07198169 46.48698889 -19.78813613 43.75167699 -22.50292969 41.01464844 C-23.30819595 40.2174791 -24.11346222 39.42030975 -24.94313049 38.59898376 C-30.13614931 33.32710949 -34.25411294 28.38757093 -35.53125 20.875 C-35.44024728 12.50274931 -34.15727337 7.22902959 -28.25 1.1875 C-18.65187014 -5.27277971 -10.06045922 -5.6341837 0 0 Z " fill="#877eff" transform="translate(184,302)"/>
<path d="M0 0 C1.423125 -0.01546875 1.423125 -0.01546875 2.875 -0.03125 C11.59849131 1.45174352 17.02496036 6.94654441 23.01464844 12.99707031 C23.87745926 13.85287186 24.74027008 14.7086734 25.62922668 15.59040833 C27.97749474 17.92415567 30.31649191 20.26646059 32.65111446 22.61381245 C35.10557415 25.07845854 37.56984649 27.53326323 40.03253174 29.98968506 C44.16513626 34.11502952 48.28927493 38.24869635 52.40869141 42.38720703 C57.15916101 47.15944219 61.92386833 51.91709697 66.69622588 56.66743588 C70.80658354 60.75959265 74.90903371 64.85955425 79.00507569 68.96604037 C81.44567164 71.41284553 83.88882557 73.85693208 86.33916473 76.29398346 C89.07198169 79.01301111 91.78813613 81.74832301 94.50292969 84.48535156 C95.71082909 85.68110558 95.71082909 85.68110558 96.94313049 86.90101624 C102.13614931 92.17289051 106.25411294 97.11242907 107.53125 104.625 C107.44024728 112.99725069 106.15727337 118.27097041 100.25 124.3125 C94.32236 128.30225769 88.27865636 130.72527857 81 129.5 C74.10872649 127.29318297 69.44148058 123.65088132 64.46069336 118.52832031 C63.76687561 117.8352327 63.07305786 117.14214508 62.35821533 116.42805481 C60.0900209 114.15640404 57.8400112 111.86762139 55.58984375 109.578125 C54.01196657 107.99091286 52.43297472 106.40480814 50.85292053 104.81976318 C46.71380392 100.66163111 42.58992895 96.48870074 38.46911621 92.31243896 C34.25484166 88.04685507 30.02623124 83.79553484 25.79882812 79.54296875 C17.51851081 71.20915987 9.25423552 62.85963681 1 54.5 C-1.82841645 55.785961 -3.86461097 57.12099153 -6.03996277 59.33309937 C-6.61303162 59.91064468 -7.18610046 60.48819 -7.77653503 61.08323669 C-8.39321548 61.71496292 -9.00989594 62.34668915 -9.64526367 62.99755859 C-10.30438751 63.66442184 -10.96351135 64.3312851 -11.64260864 65.01835632 C-13.07265152 66.46604392 -14.50048087 67.91592065 -15.92635155 69.36771774 C-18.18749525 71.66830462 -20.456104 73.96127314 -22.72712708 76.25210571 C-29.18315981 82.76614731 -35.62958885 89.28956393 -42.06079102 95.828125 C-45.99683798 99.82879841 -49.94513664 103.81703274 -53.90130043 107.7978096 C-55.40301364 109.31374021 -56.90004561 110.83432364 -58.39217186 112.35969162 C-60.48589381 114.49938781 -62.59487179 116.62290709 -64.70776367 118.74365234 C-65.61760262 119.68516899 -65.61760262 119.68516899 -66.54582214 120.64570618 C-71.8538641 125.9177415 -77.46397286 129.05098068 -84.9375 130 C-91.66717007 129.58359327 -97.97521014 127.11702136 -102.5 122.0625 C-106.03865844 117.62889016 -107.30107161 113.32823581 -107.375 107.6875 C-107.41753906 106.22376953 -107.41753906 106.22376953 -107.4609375 104.73046875 C-106.20757762 95.9463279 -100.54538394 90.46704915 -94.50292969 84.48535156 C-93.64712814 83.62254074 -92.7913266 82.75972992 -91.90959167 81.87077332 C-89.57584433 79.52250526 -87.23353941 77.18350809 -84.88618755 74.84888554 C-82.42154146 72.39442585 -79.96673677 69.93015351 -77.51031494 67.46746826 C-73.38497048 63.33486374 -69.25130365 59.21072507 -65.11279297 55.09130859 C-60.34055781 50.34083899 -55.58290303 45.57613167 -50.83256412 40.80377412 C-46.74040735 36.69341646 -42.64044575 32.59096629 -38.53395963 28.49492431 C-36.08715447 26.05432836 -33.64306792 23.61117443 -31.20601654 21.16083527 C-28.48698889 18.42801831 -25.75167699 15.71186387 -23.01464844 12.99707031 C-22.2174791 12.19180405 -21.42030975 11.38653778 -20.59898376 10.55686951 C-14.64052495 4.68753592 -8.79004286 -0.09554394 0 0 Z " fill="#877eff" transform="translate(256,84.5)"/>
</svg>
