<?xml version="1.0" encoding="UTF-8"?>
<svg version="1.1" xmlns="http://www.w3.org/2000/svg" width="512" height="512">
<path d="M0 0 C1.96062739 -0.00543888 3.92125068 -0.01257131 5.88186646 -0.02124023 C11.14229239 -0.03926679 16.40239981 -0.03249272 21.66283035 -0.01972389 C27.20808932 -0.00948774 32.75332378 -0.01901867 38.29858398 -0.02526855 C47.60502949 -0.0325144 56.91134738 -0.02303817 66.21777344 -0.00390625 C76.92653476 0.01785647 87.63499128 0.01080292 98.34374523 -0.01121187 C107.59281843 -0.02945368 116.84180071 -0.03188155 126.09088612 -0.0214572 C131.59098609 -0.01527025 137.09094353 -0.01425258 142.59103394 -0.02760315 C147.76567491 -0.03928988 152.93992882 -0.03090578 158.11452866 -0.00802612 C159.99605547 -0.00280667 161.87761576 -0.0041341 163.75912857 -0.01307678 C201.1342453 -0.17412859 232.45591964 13.88421198 258.99609375 39.96679688 C281.85122318 63.78312334 289.80615756 94.37744629 292.00390625 126.39257812 C292.13254964 128.21110734 292.2612948 130.02962937 292.39013672 131.84814453 C293.23039016 143.85747581 293.97346892 155.87179258 294.62890625 167.89257812 C294.66733643 168.59058533 294.7057666 169.28859253 294.74536133 170.00775146 C296.02194439 193.47643784 296.6680387 216.92881531 296.70703125 240.43164062 C296.71392567 243.04306044 296.72087491 245.65448012 296.72787476 248.26589966 C296.74608043 255.85090666 296.75132855 263.43589906 296.75322056 271.02092552 C296.75390851 273.14955567 296.75517592 275.27818479 296.75658417 277.40681458 C296.78145039 318.445183 296.63701088 359.42937866 293.72277832 400.38696289 C293.48770438 403.74932003 293.27465738 407.11274779 293.06152344 410.4765625 C292.9052665 412.78717515 292.74806773 415.09772434 292.58984375 417.40820312 C292.52592438 418.44724792 292.462005 419.48629272 292.39614868 420.55682373 C291.12340183 438.14035465 285.1552625 453.44197086 272.19140625 465.70507812 C260.01661515 476.00682444 246.07545774 481.12619311 230.19140625 480.95507812 C229.18811279 480.94677979 228.18481934 480.93848145 227.15112305 480.92993164 C208.96926978 480.51827257 194.60738636 472.9826459 181.9609375 460.0859375 C177.93740984 455.75498212 174.39871602 451.03043548 170.85400391 446.30712891 C168.65172127 443.38800925 166.39038355 440.51592699 164.12890625 437.64257812 C163.68095703 437.07120117 163.23300781 436.49982422 162.77148438 435.91113281 C159.21278148 431.38347615 155.58420833 426.915196 151.94140625 422.45507812 C147.21554961 416.66890658 142.62722714 410.80271332 138.09765625 404.86132812 C134.60438498 400.32007547 130.95616422 395.90439847 127.32910156 391.4699707 C123.0682524 386.2470958 118.94845692 380.93212263 114.8671875 375.56835938 C111.75109551 371.5457679 108.50127352 367.64802722 105.21875 363.75976562 C103.50390625 361.51757812 103.50390625 361.51757812 102.50390625 358.51757812 C100.64587763 357.40083034 100.64587763 357.40083034 98.50390625 356.51757812 C97.93671875 356.18757813 97.36953125 355.85757812 96.78515625 355.51757812 C89.0616382 351.18156799 80.95582127 349.6607301 72.25390625 351.51757812 C59.58111142 355.31281616 52.24942619 366.10201648 44.56689453 376.22680664 C41.13867814 380.73499531 37.59128036 385.13533701 34.00390625 389.51757812 C30.09461221 394.29711698 26.24757859 399.10704688 22.50390625 404.01757812 C18.22270369 409.63318148 13.79047815 415.11033128 9.3203125 420.57617188 C5.97784129 424.67364835 2.70985124 428.81237755 -0.49609375 433.01757812 C-5.88043506 440.07080173 -11.45090468 446.96523365 -17.09375 453.81298828 C-18.2452747 455.21270023 -19.38760761 456.6199693 -20.52734375 458.02929688 C-31.43782328 471.12701876 -45.6811529 478.24528882 -62.49609375 480.51757812 C-79.57841578 481.98177716 -96.19356354 477.3207199 -109.49609375 466.51757812 C-125.03508487 452.84050754 -130.45789303 437.04678502 -131.8972168 416.90283203 C-132.11468333 413.44190911 -132.3070622 409.98017024 -132.49609375 406.51757812 C-132.57986161 405.06930448 -132.66419856 403.62106368 -132.74902344 402.17285156 C-134.51292356 371.91683324 -135.65464601 341.68850335 -135.69921875 311.37695312 C-135.70197453 310.02371449 -135.70483228 308.67047607 -135.70778656 307.31723785 C-135.72137623 300.91958114 -135.73107452 294.52193647 -135.73498845 288.12426639 C-135.73896516 281.67506244 -135.75100473 275.22600893 -135.77734375 268.77685547 C-136.50685632 86.08822841 -136.50685632 86.08822841 -93.68359375 35.26757812 C-87.54263461 29.18075968 -80.71390913 24.24223712 -73.49609375 19.51757812 C-72.10197266 18.57978516 -72.10197266 18.57978516 -70.6796875 17.62304688 C-64.5903595 13.78581743 -58.16810642 10.97431987 -51.49609375 8.33007812 C-50.70904053 8.00894043 -49.9219873 7.68780273 -49.11108398 7.35693359 C-33.22227631 1.32794196 -16.83186889 -0.08000051 0 0 Z M-15.05761719 33.40484619 C-15.77678944 33.48179395 -16.49596169 33.55874172 -17.23692703 33.63802123 C-36.55830039 35.9331953 -54.22402915 44.33788452 -68.49609375 57.51757812 C-69.19863281 58.14019531 -69.90117188 58.7628125 -70.625 59.40429688 C-108.22684051 94.50425368 -100.73750848 159.28979673 -102.36166 206.19469833 C-103.06664052 227.8860186 -102.94597698 249.60471658 -102.8820076 271.3045311 C-102.86996783 275.53485673 -102.86564692 279.76517401 -102.86203003 283.99551392 C-102.82238805 323.70679298 -102.42621463 363.35621174 -99.66842651 402.98843384 C-99.50524808 405.38322979 -99.35762121 407.77834407 -99.21704102 410.17456055 C-99.1750206 410.87108231 -99.13300018 411.56760406 -99.08970642 412.28523254 C-98.98407804 414.03888951 -98.87989108 415.79263315 -98.77587891 417.54638672 C-97.96918141 426.11314812 -95.69402817 433.37342187 -89.49609375 439.51757812 C-82.72356391 445.05649598 -75.79616547 448.09309052 -66.94921875 447.82226562 C-55.68700038 446.42345506 -48.35458946 440.49548842 -41.5390625 431.81445312 C-39.32022434 428.9296571 -37.14043521 426.01708728 -34.96484375 423.09960938 C-31.54861749 418.53914143 -27.95611524 414.14400808 -24.30859375 409.76757812 C-19.41525344 403.88355337 -14.68682125 397.91868277 -10.0546875 391.82617188 C-7.11535555 387.99139885 -4.05510848 384.25706304 -0.99609375 380.51757812 C2.91301822 375.73788532 6.76022847 370.92811652 10.50390625 366.01757812 C16.33461344 358.37963705 22.38600863 350.92679669 28.50390625 343.51757812 C29.19742188 342.67710937 29.8909375 341.83664062 30.60546875 340.97070312 C42.20827345 327.30164553 56.87675468 319.64303974 74.75390625 317.70507812 C93.04689916 316.66224718 109.70268134 322.32046506 123.7734375 333.90429688 C129.65980755 339.53803302 134.51468405 346.09650594 139.50390625 352.51757812 C140.46487498 353.73733042 141.42705675 354.95612832 142.390625 356.17382812 C145.5556724 360.17897034 148.69687478 364.20256709 151.83789062 368.2265625 C157.18081836 375.06706998 162.57566503 381.85740899 168.06640625 388.58007812 C172.79226289 394.36624967 177.38058536 400.23244293 181.91015625 406.17382812 C185.40194441 410.71315273 189.04381511 415.13146718 192.67871094 419.55639648 C195.72320232 423.27569317 198.66368327 427.0432927 201.5168457 430.91088867 C207.46858765 438.94168791 213.90485319 445.96508341 224.046875 448.03710938 C232.65176123 448.99038333 239.56079178 447.82567565 246.75390625 442.83007812 C253.13517915 437.62430287 257.67974521 431.49436866 258.82546997 423.18560791 C259.09915164 420.36320617 259.32253268 417.54113212 259.52734375 414.71289062 C259.6090683 413.6499881 259.69079285 412.58708557 259.7749939 411.49197388 C260.0266053 408.16775259 260.26585197 404.84279456 260.50390625 401.51757812 C260.57758423 400.53881714 260.65126221 399.56005615 260.72717285 398.55163574 C266.81413692 317.46001626 266.51875301 233.56566542 260.70959473 152.47021484 C260.43360463 148.50840572 260.19404112 144.54470267 259.95396423 140.58058167 C259.6774704 136.07907092 259.37340014 131.57959308 259.06640625 127.08007812 C259.01704926 126.31583527 258.96769226 125.55159241 258.9168396 124.76419067 C257.05693324 96.8795359 246.83276866 72.62553381 225.69921875 54.05273438 C211.49569527 42.79384381 194.13719986 35.30873764 176.09277344 33.40093994 C175.31383099 33.31724915 174.53488853 33.23355835 173.73234177 33.14733148 C165.47051651 32.3225043 157.25260756 32.23555861 148.95703125 32.25878906 C147.28902027 32.25606891 145.6210105 32.25250232 143.95300293 32.24816895 C139.48189769 32.23916422 135.01088624 32.24253918 130.53977966 32.24892712 C125.82371804 32.25404969 121.10766356 32.24927851 116.39160156 32.24615479 C108.47719913 32.24253315 100.56283422 32.24726659 92.6484375 32.25683594 C83.54502479 32.26771698 74.44170171 32.26419012 65.33829117 32.25318313 C57.47188687 32.24405855 49.6055093 32.24285008 41.73910141 32.24806046 C37.0629098 32.25115192 32.38676008 32.25166843 27.71057129 32.24498749 C23.31087625 32.23913875 18.91129491 32.24334592 14.51161194 32.254776 C12.91305224 32.25738289 11.31448268 32.25672717 9.71592712 32.25225067 C1.40342887 32.23114897 -6.78849458 32.51114057 -15.05761719 33.40484619 Z " fill="#877eff" transform="translate(175.49609375,15.482421875)"/>
<path d="M0 0 C1.05489624 -0.00935994 1.05489624 -0.00935994 2.13110352 -0.01890898 C4.47576936 -0.03479977 6.81938988 -0.02225106 9.1640625 -0.00964355 C10.84977828 -0.01506645 12.53548932 -0.02219005 14.22119141 -0.03088379 C18.79145963 -0.04910026 23.36136618 -0.04205658 27.93164062 -0.02936745 C32.71745774 -0.01923109 37.50324416 -0.02863489 42.2890625 -0.03491211 C50.32557731 -0.04218666 58.36194503 -0.03260586 66.3984375 -0.0135498 C75.68597197 0.00821857 84.97315519 0.00116706 94.26068115 -0.02085543 C102.23877974 -0.0390149 110.21677267 -0.04156507 118.19488525 -0.03110075 C122.95810706 -0.02486883 127.72116384 -0.02402189 132.484375 -0.0372467 C136.96279317 -0.04881255 141.44075904 -0.04076615 145.91912842 -0.01766968 C147.56141408 -0.0123865 149.20373788 -0.01388971 150.8460083 -0.02272034 C153.09055875 -0.03367555 155.33366615 -0.01991476 157.578125 0 C158.83318848 0.0015081 160.08825195 0.0030162 161.38134766 0.00457001 C166.5664884 0.77048389 169.61909387 3.27638864 173.1640625 7.00793457 C175.56209825 12.17293466 175.54287785 16.90816337 174.7890625 22.50793457 C172.47916652 27.48309515 169.50950231 29.82698187 164.7890625 32.50793457 C161.38134766 33.01129913 161.38134766 33.01129913 157.578125 33.01586914 C156.52322876 33.02522908 156.52322876 33.02522908 155.44702148 33.03477812 C153.10235564 33.05066891 150.75873512 33.0381202 148.4140625 33.0255127 C146.72834672 33.03093559 145.04263568 33.03805919 143.35693359 33.04675293 C138.78666537 33.0649694 134.21675882 33.05792572 129.64648438 33.04523659 C124.86066726 33.03510023 120.07488084 33.04450404 115.2890625 33.05078125 C107.25254769 33.0580558 99.21617997 33.048475 91.1796875 33.02941895 C81.89215303 33.00765057 72.60496981 33.01470208 63.31744385 33.03672457 C55.33934526 33.05488404 47.36135233 33.05743421 39.38323975 33.04696989 C34.62001794 33.04073798 29.85696116 33.03989103 25.09375 33.05311584 C20.61533183 33.06468169 16.13736596 33.05663529 11.65899658 33.03353882 C10.01671092 33.02825564 8.37438712 33.02975885 6.7321167 33.03858948 C4.48756625 33.04954469 2.24445885 33.0357839 0 33.01586914 C-1.25506348 33.01436104 -2.51012695 33.01285294 -3.80322266 33.01129913 C-8.9883634 32.24538525 -12.04096887 29.7394805 -15.5859375 26.00793457 C-17.98397325 20.84293448 -17.96475285 16.10770577 -17.2109375 10.50793457 C-13.71687306 2.98225731 -8.11362412 0.00974945 0 0 Z " fill="#877eff" transform="translate(177.2109375,103.4920654296875)"/>
</svg>
