<?xml version="1.0" encoding="UTF-8"?>
<svg version="1.1" xmlns="http://www.w3.org/2000/svg" width="512" height="512">
<path d="M0 0 C1.96062739 -0.00543888 3.92125068 -0.01257131 5.88186646 -0.02124023 C11.14229239 -0.03926679 16.40239981 -0.03249272 21.66283035 -0.01972389 C27.20808932 -0.00948774 32.75332378 -0.01901867 38.29858398 -0.02526855 C47.60502949 -0.0325144 56.91134738 -0.02303817 66.21777344 -0.00390625 C76.92653476 0.01785647 87.63499128 0.01080292 98.34374523 -0.01121187 C107.59281843 -0.02945368 116.84180071 -0.03188155 126.09088612 -0.0214572 C131.59098609 -0.01527025 137.09094353 -0.01425258 142.59103394 -0.02760315 C147.76567491 -0.03928988 152.93992882 -0.03090578 158.11452866 -0.00802612 C159.99605547 -0.00280667 161.87761576 -0.0041341 163.75912857 -0.01307678 C201.1342453 -0.17412859 232.45591964 13.88421198 258.99609375 39.96679688 C281.85122318 63.78312334 289.80615756 94.37744629 292.00390625 126.39257812 C292.13254964 128.21110734 292.2612948 130.02962937 292.39013672 131.84814453 C293.23039016 143.85747581 293.97346892 155.87179258 294.62890625 167.89257812 C294.66733643 168.59058533 294.7057666 169.28859253 294.74536133 170.00775146 C296.02194439 193.47643784 296.6680387 216.92881531 296.70703125 240.43164062 C296.71392567 243.04306044 296.72087491 245.65448012 296.72787476 248.26589966 C296.74608043 255.85090666 296.75132855 263.43589906 296.75322056 271.02092552 C296.75390851 273.14955567 296.75517592 275.27818479 296.75658417 277.40681458 C296.78145039 318.445183 296.63701088 359.42937866 293.72277832 400.38696289 C293.48770438 403.74932003 293.27465738 407.11274779 293.06152344 410.4765625 C292.9052665 412.78717515 292.74806773 415.09772434 292.58984375 417.40820312 C292.52592438 418.44724792 292.462005 419.48629272 292.39614868 420.55682373 C291.12340183 438.14035465 285.1552625 453.44197086 272.19140625 465.70507812 C260.01661515 476.00682444 246.07545774 481.12619311 230.19140625 480.95507812 C229.18811279 480.94677979 228.18481934 480.93848145 227.15112305 480.92993164 C208.96926978 480.51827257 194.60738636 472.9826459 181.9609375 460.0859375 C177.93740984 455.75498212 174.39871602 451.03043548 170.85400391 446.30712891 C168.65172127 443.38800925 166.39038355 440.51592699 164.12890625 437.64257812 C163.68095703 437.07120117 163.23300781 436.49982422 162.77148438 435.91113281 C159.21278148 431.38347615 155.58420833 426.915196 151.94140625 422.45507812 C147.21554961 416.66890658 142.62722714 410.80271332 138.09765625 404.86132812 C134.60438498 400.32007547 130.95616422 395.90439847 127.32910156 391.4699707 C123.0682524 386.2470958 118.94845692 380.93212263 114.8671875 375.56835938 C111.75109551 371.5457679 108.50127352 367.64802722 105.21875 363.75976562 C103.50390625 361.51757812 103.50390625 361.51757812 102.50390625 358.51757812 C100.64587763 357.40083034 100.64587763 357.40083034 98.50390625 356.51757812 C97.93671875 356.18757813 97.36953125 355.85757812 96.78515625 355.51757812 C89.0616382 351.18156799 80.95582127 349.6607301 72.25390625 351.51757812 C59.58111142 355.31281616 52.24942619 366.10201648 44.56689453 376.22680664 C41.13867814 380.73499531 37.59128036 385.13533701 34.00390625 389.51757812 C30.09461221 394.29711698 26.24757859 399.10704688 22.50390625 404.01757812 C18.22270369 409.63318148 13.79047815 415.11033128 9.3203125 420.57617188 C5.97784129 424.67364835 2.70985124 428.81237755 -0.49609375 433.01757812 C-5.88043506 440.07080173 -11.45090468 446.96523365 -17.09375 453.81298828 C-18.2452747 455.21270023 -19.38760761 456.6199693 -20.52734375 458.02929688 C-31.43782328 471.12701876 -45.6811529 478.24528882 -62.49609375 480.51757812 C-79.57841578 481.98177716 -96.19356354 477.3207199 -109.49609375 466.51757812 C-125.03508487 452.84050754 -130.45789303 437.04678502 -131.8972168 416.90283203 C-132.11468333 413.44190911 -132.3070622 409.98017024 -132.49609375 406.51757812 C-132.57986161 405.06930448 -132.66419856 403.62106368 -132.74902344 402.17285156 C-134.51292356 371.91683324 -135.65464601 341.68850335 -135.69921875 311.37695312 C-135.70197453 310.02371449 -135.70483228 308.67047607 -135.70778656 307.31723785 C-135.72137623 300.91958114 -135.73107452 294.52193647 -135.73498845 288.12426639 C-135.73896516 281.67506244 -135.75100473 275.22600893 -135.77734375 268.77685547 C-136.50685632 86.08822841 -136.50685632 86.08822841 -93.68359375 35.26757812 C-87.54263461 29.18075968 -80.71390913 24.24223712 -73.49609375 19.51757812 C-72.10197266 18.57978516 -72.10197266 18.57978516 -70.6796875 17.62304688 C-64.5903595 13.78581743 -58.16810642 10.97431987 -51.49609375 8.33007812 C-50.70904053 8.00894043 -49.9219873 7.68780273 -49.11108398 7.35693359 C-33.22227631 1.32794196 -16.83186889 -0.08000051 0 0 Z " fill="#877eff" transform="translate(175.49609375,15.482421875)"/>
<path d="M0 0 C1.96062739 -0.00543888 3.92125068 -0.01257131 5.88186646 -0.02124023 C11.14229239 -0.03926679 16.40239981 -0.03249272 21.66283035 -0.01972389 C27.20808932 -0.00948774 32.75332378 -0.01901867 38.29858398 -0.02526855 C47.60502949 -0.0325144 56.91134738 -0.02303817 66.21777344 -0.00390625 C76.92653476 0.01785647 87.63499128 0.01080292 98.34374523 -0.01121187 C107.59281843 -0.02945368 116.84180071 -0.03188155 126.09088612 -0.0214572 C131.59098609 -0.01527025 137.09094353 -0.01425258 142.59103394 -0.02760315 C147.76567491 -0.03928988 152.93992882 -0.03090578 158.11452866 -0.00802612 C159.99605547 -0.00280667 161.87761576 -0.0041341 163.75912857 -0.01307678 C201.1342453 -0.17412859 232.45591964 13.88421198 258.99609375 39.96679688 C281.85122318 63.78312334 289.80615756 94.37744629 292.00390625 126.39257812 C292.13254964 128.21110734 292.2612948 130.02962937 292.39013672 131.84814453 C293.23039016 143.85747581 293.97346892 155.87179258 294.62890625 167.89257812 C294.66733643 168.59058533 294.7057666 169.28859253 294.74536133 170.00775146 C296.02194439 193.47643784 296.6680387 216.92881531 296.70703125 240.43164062 C296.71392567 243.04306044 296.72087491 245.65448012 296.72787476 248.26589966 C296.74608043 255.85090666 296.75132855 263.43589906 296.75322056 271.02092552 C296.75390851 273.14955567 296.75517592 275.27818479 296.75658417 277.40681458 C296.78145039 318.445183 296.63701088 359.42937866 293.72277832 400.38696289 C293.48770438 403.74932003 293.27465738 407.11274779 293.06152344 410.4765625 C292.9052665 412.78717515 292.74806773 415.09772434 292.58984375 417.40820312 C292.52592438 418.44724792 292.462005 419.48629272 292.39614868 420.55682373 C291.12340183 438.14035465 285.1552625 453.44197086 272.19140625 465.70507812 C260.01661515 476.00682444 246.07545774 481.12619311 230.19140625 480.95507812 C229.18811279 480.94677979 228.18481934 480.93848145 227.15112305 480.92993164 C208.96926978 480.51827257 194.60738636 472.9826459 181.9609375 460.0859375 C177.93740984 455.75498212 174.39871602 451.03043548 170.85400391 446.30712891 C168.65172127 443.38800925 166.39038355 440.51592699 164.12890625 437.64257812 C163.68095703 437.07120117 163.23300781 436.49982422 162.77148438 435.91113281 C159.21278148 431.38347615 155.58420833 426.915196 151.94140625 422.45507812 C147.21554961 416.66890658 142.62722714 410.80271332 138.09765625 404.86132812 C134.60438498 400.32007547 130.95616422 395.90439847 127.32910156 391.4699707 C123.0682524 386.2470958 118.94845692 380.93212263 114.8671875 375.56835938 C111.75109551 371.5457679 108.50127352 367.64802722 105.21875 363.75976562 C103.50390625 361.51757812 103.50390625 361.51757812 102.50390625 358.51757812 C100.64587763 357.40083034 100.64587763 357.40083034 98.50390625 356.51757812 C97.93671875 356.18757813 97.36953125 355.85757812 96.78515625 355.51757812 C89.0616382 351.18156799 80.95582127 349.6607301 72.25390625 351.51757812 C59.58111142 355.31281616 52.24942619 366.10201648 44.56689453 376.22680664 C41.13867814 380.73499531 37.59128036 385.13533701 34.00390625 389.51757812 C30.09461221 394.29711698 26.24757859 399.10704688 22.50390625 404.01757812 C18.22270369 409.63318148 13.79047815 415.11033128 9.3203125 420.57617188 C5.97784129 424.67364835 2.70985124 428.81237755 -0.49609375 433.01757812 C-5.88043506 440.07080173 -11.45090468 446.96523365 -17.09375 453.81298828 C-18.2452747 455.21270023 -19.38760761 456.6199693 -20.52734375 458.02929688 C-31.43782328 471.12701876 -45.6811529 478.24528882 -62.49609375 480.51757812 C-79.57841578 481.98177716 -96.19356354 477.3207199 -109.49609375 466.51757812 C-125.03508487 452.84050754 -130.45789303 437.04678502 -131.8972168 416.90283203 C-132.11468333 413.44190911 -132.3070622 409.98017024 -132.49609375 406.51757812 C-132.57986161 405.06930448 -132.66419856 403.62106368 -132.74902344 402.17285156 C-134.51292356 371.91683324 -135.65464601 341.68850335 -135.69921875 311.37695312 C-135.70197453 310.02371449 -135.70483228 308.67047607 -135.70778656 307.31723785 C-135.72137623 300.91958114 -135.73107452 294.52193647 -135.73498845 288.12426639 C-135.73896516 281.67506244 -135.75100473 275.22600893 -135.77734375 268.77685547 C-136.50685632 86.08822841 -136.50685632 86.08822841 -93.68359375 35.26757812 C-87.54263461 29.18075968 -80.71390913 24.24223712 -73.49609375 19.51757812 C-72.10197266 18.57978516 -72.10197266 18.57978516 -70.6796875 17.62304688 C-64.5903595 13.78581743 -58.16810642 10.97431987 -51.49609375 8.33007812 C-50.70904053 8.00894043 -49.9219873 7.68780273 -49.11108398 7.35693359 C-33.22227631 1.32794196 -16.83186889 -0.08000051 0 0 Z M-77.4375 65.92382812 C-88.81516739 80.25925725 -95.82866656 96.46829296 -97.51171875 114.65820312 C-97.59498413 115.52765564 -97.67824951 116.39710815 -97.76403809 117.29290771 C-105.84798623 203.83380198 -105.55522267 291.74890172 -101.49609375 378.51757812 C-101.44281921 379.66798584 -101.38954468 380.81839355 -101.33465576 382.00366211 C-101.02358146 388.61308986 -100.68239354 395.21992601 -100.29629517 401.82540894 C-100.18173479 403.7900964 -100.07150772 405.75504259 -99.96615601 407.72024536 C-99.07386275 425.72107929 -99.07386275 425.72107929 -89.49609375 440.51757812 C-80.36491909 446.73672753 -73.5792743 448.34911364 -62.49609375 447.51757812 C-50.72581297 444.85200294 -44.17499962 436.43676604 -37.265625 427.17773438 C-34.28646886 423.19939847 -31.14798586 419.35956485 -27.99609375 415.51757812 C-24.08625314 410.73850579 -20.23974863 405.92808647 -16.49609375 401.01757812 C-12.21489119 395.40197477 -7.78266565 389.92482497 -3.3125 384.45898438 C0.02997121 380.3615079 3.29796126 376.2227787 6.50390625 372.01757812 C10.76313971 366.432943 15.15435809 360.96966537 19.61499023 355.54467773 C22.2655836 352.31250315 24.86843571 349.06527413 27.35546875 345.70507812 C35.74878188 334.41694986 45.08986839 326.51112507 58.50390625 321.51757812 C59.29410156 321.19917969 60.08429688 320.88078125 60.8984375 320.55273438 C77.1053241 315.01431801 94.31143452 318.24304286 109.546875 324.83398438 C122.02514512 331.01152007 130.00552083 341.09404338 138.10546875 352.00585938 C141.49011408 356.54985882 145.06363671 360.91661933 148.69140625 365.26757812 C153.58487637 371.15148873 158.3131847 377.1164813 162.9453125 383.20898438 C165.88464445 387.0437574 168.94489152 390.77809321 172.00390625 394.51757812 C175.91301822 399.29727093 179.76022847 404.10703973 183.50390625 409.01757812 C187.83156892 414.69146811 192.29118005 420.24604788 196.81713867 425.76293945 C199.89875854 429.52102363 202.88155194 433.33037852 205.81640625 437.20507812 C210.43786643 442.99406509 216.19788854 446.94177038 223.50390625 448.51757812 C233.29362577 449.54061955 242.08237985 447.58006531 249.87890625 441.39257812 C256.95691423 434.41609895 258.76650602 427.51936751 259.5390625 417.85351562 C259.62042953 416.89584793 259.70179657 415.93818024 259.78562927 414.95149231 C260.78764521 402.7179273 261.44068242 390.46263968 262.06640625 378.20507812 C262.13082916 376.9512735 262.19525208 375.69746887 262.2616272 374.40567017 C266.16339688 297.81822481 265.50403269 221.06238663 260.69255066 144.53434372 C260.56848262 142.55077463 260.44724211 140.56702934 260.3260498 138.58328247 C258.33593849 106.50362009 253.02311895 79.05720845 228.84375 55.97851562 C215.3919499 44.44840125 198.16335668 35.89701706 180.50390625 33.51757812 C179.29882605 33.34892652 178.09374584 33.18027491 176.85214806 33.00651264 C172.7415617 32.49656834 168.66487575 32.36931058 164.52578735 32.3704071 C163.7639443 32.36673042 163.00210124 32.36305373 162.21717203 32.35926563 C159.68595267 32.3483276 157.1547745 32.34440187 154.62353516 32.34057617 C152.79936598 32.33430388 150.97519805 32.32765641 149.15103149 32.32066345 C143.17751948 32.2997057 137.20400747 32.28926643 131.23046875 32.27929688 C129.16550051 32.27524574 127.1005324 32.27112871 125.03556442 32.26694679 C115.32753326 32.24791058 105.6195096 32.23367821 95.91146338 32.22533482 C84.7469939 32.21557854 73.58272352 32.18929443 62.41832411 32.14883393 C53.76232516 32.11855299 45.10638289 32.10385451 36.45033205 32.10055381 C31.29325078 32.09821635 26.13638258 32.08942765 20.97935867 32.06409264 C16.11845947 32.04059724 11.25791038 32.03666376 6.39696884 32.04685402 C4.6274727 32.04734437 2.85795803 32.0411746 1.08851624 32.02729797 C-29.30768882 31.80254441 -57.18025938 42.52509029 -77.4375 65.92382812 Z " fill="#877eff" transform="translate(175.49609375,15.482421875)"/>
<path d="M0 0 C0.6875958 -0.00297112 1.37519161 -0.00594224 2.08362365 -0.0090034 C4.39892126 -0.01770878 6.71416728 -0.0192002 9.02947998 -0.02069092 C10.68504447 -0.02531786 12.34060788 -0.03034235 13.99617004 -0.03573608 C18.5025087 -0.04887555 23.00883244 -0.05530825 27.51518726 -0.05974674 C30.32974512 -0.06267546 33.14429888 -0.06677991 35.95885468 -0.07125092 C44.76239639 -0.08493097 53.56592876 -0.09459469 62.36948037 -0.09845281 C72.53627004 -0.10293258 82.7029252 -0.12047461 92.86967397 -0.1494534 C100.72452294 -0.17106604 108.57933406 -0.18115689 116.43421245 -0.18249393 C121.12706464 -0.18354241 125.81979047 -0.18945925 130.51261139 -0.20731354 C134.92849778 -0.22378662 139.34416274 -0.22595345 143.76006889 -0.21717453 C145.37978902 -0.2164037 146.99952102 -0.22075295 148.6192112 -0.23063278 C150.83307419 -0.24334348 153.04615198 -0.23748084 155.26000977 -0.22705078 C157.11721334 -0.22925062 157.11721334 -0.22925062 159.01193619 -0.2314949 C163.39846009 0.25234028 166.78539691 1.64818518 170.02850342 4.67559814 C174.21761769 10.15367065 175.00549619 13.32669708 174.38397217 20.14044189 C172.55862626 25.41366342 169.77678014 27.93735275 165.38397217 31.14044189 C161.94233542 32.28765414 159.27934682 32.27505344 155.64768982 32.28761292 C154.95923959 32.2912896 154.27078936 32.29496629 153.56147701 32.29875439 C151.24929014 32.30978768 148.93714822 32.31363444 146.62493896 32.31744385 C144.96922666 32.32370871 143.31351576 32.33035553 141.6578064 32.33735657 C136.21627786 32.3583944 130.77474905 32.36875777 125.33319092 32.37872314 C123.46019793 32.38277062 121.5872051 32.38688753 119.71421242 32.39107323 C110.91601606 32.41012323 102.11782809 32.42435542 93.31961507 32.4326852 C83.16128583 32.44246138 73.00317428 32.46879162 62.84492177 32.50918609 C54.9942998 32.53933387 47.14374029 32.55415275 39.29306155 32.55746621 C34.60353204 32.55981798 29.91423514 32.56879503 25.22476768 32.59392738 C20.81292559 32.61719014 16.40146957 32.62144865 11.98958206 32.611166 C10.37146662 32.61067011 8.75333228 32.61700626 7.13527489 32.63072205 C4.92345588 32.64842017 2.71302562 32.64134667 0.50120544 32.62818909 C-1.35404991 32.63177162 -1.35404991 32.63177162 -3.24678516 32.63542652 C-8.42194862 31.87512915 -11.48422427 29.3946026 -14.92852783 25.57794189 C-18.07288719 21.03608949 -18.27640867 16.49686424 -17.61602783 11.14044189 C-13.60815543 3.27313681 -8.56047692 0.02059192 0 0 Z " fill="#09090a" transform="translate(177.61602783203125,103.85955810546875)"/>
</svg>
