<?xml version="1.0" encoding="UTF-8"?>
<svg version="1.1" xmlns="http://www.w3.org/2000/svg" width="512" height="512">
<path d="M0 0 C1.21623047 0.98613281 1.21623047 0.98613281 2.45703125 1.9921875 C3.17503906 2.54648438 3.89304687 3.10078125 4.6328125 3.671875 C18.30203639 14.7665072 27.18387853 32.64680046 29.45703125 49.9921875 C31.29431998 70.57223349 27.37764251 89.7956335 14.51953125 106.3671875 C9.9902541 111.70715239 5.30632169 117.09266054 -0.54296875 120.9921875 C-0.0104248 121.26780518 0.52211914 121.54342285 1.07080078 121.82739258 C12.74885421 127.92274842 23.59963308 134.20964076 33.45703125 142.9921875 C33.97700684 143.45173828 34.49698242 143.91128906 35.03271484 144.38476562 C50.72360095 158.50018272 61.63097229 176.98238393 67.83203125 197.0546875 C68.07091064 197.82071289 68.30979004 198.58673828 68.5559082 199.37597656 C72.4257935 212.79381989 72.77112638 226.43286842 72.7578125 240.28125 C72.76171355 241.99986878 72.76605103 243.71848662 72.77079773 245.43710327 C72.77819581 249.01213734 72.7780144 252.58707253 72.77270508 256.16210938 C72.76689797 260.70846358 72.78390277 265.25441204 72.80704975 269.80069923 C72.82188156 273.34065046 72.82264639 276.88050583 72.81954002 280.42048264 C72.8200478 282.09556257 72.82518144 283.77064865 72.83535194 285.44569778 C72.93494759 304.12506932 69.80440507 320.04518125 56.45703125 333.9921875 C45.72154642 343.77721577 33.12266435 349.08958594 18.50804138 349.13262939 C17.34059891 349.13833954 16.17315643 349.14404968 14.97033691 349.14993286 C13.70322876 349.15105072 12.43612061 349.15216858 11.13061523 349.15332031 C9.7715288 349.15795399 8.41244365 349.16297938 7.05335999 349.16836548 C3.37114213 349.1814421 -0.31105753 349.18792563 -3.99329495 349.19237614 C-6.29936988 349.19531568 -8.60543992 349.19942221 -10.91151237 349.20388031 C-18.14261334 349.21754531 -25.37370304 349.22721577 -32.60481602 349.2310822 C-40.92186205 349.23555492 -49.23874309 349.25307035 -57.55573899 349.2820828 C-64.00357153 349.30378548 -70.45135796 349.31379111 -76.89922661 349.31512332 C-80.74102923 349.3161656 -84.58267657 349.32194871 -88.42444038 349.33994293 C-92.04508418 349.35657203 -95.66545843 349.3585083 -99.28612709 349.34980392 C-101.22662971 349.34868149 -103.16712399 349.36228528 -105.10757446 349.3765564 C-121.66090287 349.29890354 -136.19666771 345.04497504 -148.29296875 333.39453125 C-158.78087551 322.1965058 -163.67924779 308.64129756 -163.70410156 293.3605957 C-163.70906647 292.61970703 -163.71403137 291.87881836 -163.71914673 291.11547852 C-163.73369408 288.67463222 -163.74056277 286.23385121 -163.74609375 283.79296875 C-163.74892113 282.95061361 -163.7517485 282.10825848 -163.75466156 281.24037743 C-163.76963454 276.77051865 -163.77887225 272.30069191 -163.78320312 267.83081055 C-163.78864296 263.26799827 -163.81258012 258.7054912 -163.84117508 254.14277363 C-163.86004352 250.58970872 -163.86502001 247.03671324 -163.866539 243.48360252 C-163.86951883 241.80509994 -163.87738366 240.12659713 -163.89072418 238.44814491 C-164.14861684 203.46488426 -153.40611762 171.88150504 -128.66796875 146.6171875 C-117.51506835 135.69716985 -104.22603088 128.28361517 -90.54296875 120.9921875 C-91.06455566 120.55801514 -91.58614258 120.12384277 -92.12353516 119.67651367 C-107.4037772 106.84520866 -117.62394089 90.92413533 -120.54296875 70.9921875 C-122.06961555 47.93928326 -117.36322547 27.16716387 -101.89013672 9.44824219 C-75.82015494 -18.82170047 -30.5538126 -23.7094007 0 0 Z M-83.54296875 22.9921875 C-94.02563715 35.64224658 -99.9763731 49.40565144 -98.54296875 65.9921875 C-96.12891305 81.26768282 -88.6816018 93.629774 -76.66796875 103.3046875 C-64.83307911 111.62683101 -51.76415414 114.39985082 -37.54296875 112.9921875 C-22.73552984 110.02749464 -10.79569657 102.33571268 -1.73046875 90.2421875 C6.64255469 77.57378324 9.31286691 63.42371258 6.39453125 48.6171875 C2.52375027 33.2801308 -6.27382511 22.1802619 -19.54296875 13.9921875 C-40.44923524 3.7786315 -66.77375887 5.17216552 -83.54296875 22.9921875 Z M-109.54296875 159.9921875 C-110.41566406 160.7965625 -111.28835937 161.6009375 -112.1875 162.4296875 C-132.56490409 181.98221916 -140.7675193 206.87807706 -141.65692139 234.5357666 C-141.81843733 242.74561268 -141.82994962 250.95399922 -141.80371094 259.16503906 C-141.79223125 262.78995472 -141.79895987 266.41457676 -141.81085587 270.03948212 C-141.81813216 272.87591715 -141.81576174 275.71228407 -141.81060028 278.54872131 C-141.80865445 280.52430417 -141.8146306 282.49988988 -141.82086182 284.47546387 C-141.76037473 296.17285404 -141.05571569 306.58923984 -133.54296875 315.9921875 C-122.89447959 326.44384692 -111.39631159 327.14303469 -97.17285156 327.13745117 C-95.94104156 327.14080978 -94.70923157 327.1441684 -93.44009399 327.14762878 C-90.0762219 327.15547785 -86.71241155 327.15880503 -83.34853458 327.15944457 C-81.24163871 327.16015776 -79.13474921 327.16229718 -77.02785492 327.16494179 C-69.66244601 327.17418116 -62.29705514 327.17827854 -54.93164062 327.17749023 C-48.09080805 327.17689019 -41.25005451 327.18743118 -34.40924191 327.2032339 C-28.51598025 327.21635738 -22.62274426 327.2216721 -16.72946811 327.22103482 C-13.2186573 327.2207812 -9.70791678 327.22355682 -6.19712067 327.23421288 C-2.27493777 327.24579352 1.64713879 327.24111773 5.56933594 327.23510742 C6.71568512 327.24072693 7.8620343 327.24634644 9.04312134 327.25213623 C20.34288295 327.20833218 30.39811554 326.23006053 39.45703125 318.9921875 C50.36687823 307.87688201 50.61236244 295.78732955 50.625 280.9765625 C50.62822265 279.59718798 50.63158743 278.21781379 50.63508606 276.83843994 C50.64105869 273.94697278 50.64292829 271.05553539 50.64233398 268.1640625 C50.64225327 265.23756659 50.64910832 262.31122902 50.6628418 259.38476562 C50.81981254 225.40318341 49.88572667 193.27779389 25.45703125 166.9921875 C24.25046875 165.68314453 24.25046875 165.68314453 23.01953125 164.34765625 C4.53686138 145.08524874 -18.47900001 136.92178519 -44.54296875 134.9921875 C-68.63877006 134.9921875 -91.87201868 143.5695777 -109.54296875 159.9921875 Z " fill="#877eff" transform="translate(301.54296875,89.0078125)"/>
<path d="M0 0 C13.92229697 10.85453015 23.42945877 24.51640962 27 42 C27.40468944 45.78333756 27.47814665 49.50978054 27.4375 53.3125 C27.42614014 54.81635254 27.42614014 54.81635254 27.41455078 56.35058594 C26.96937784 76.50359727 17.95714297 90.13758877 4 104 C4.92039062 104.51046875 5.84078125 105.0209375 6.7890625 105.546875 C31.55676147 119.62917521 49.30086849 140.336608 57 168 C59.19737425 176.35513162 59.3268982 184.57955864 59.3359375 193.17578125 C59.34238341 194.6325035 59.34911302 196.08922451 59.35610962 197.54594421 C59.36801589 200.58591712 59.37179732 203.62577695 59.37060547 206.66577148 C59.37040255 210.52524136 59.39770579 214.3839727 59.43214989 218.24326801 C59.45459104 221.24880684 59.45843782 224.25417265 59.45738602 227.25978661 C59.45971614 228.68089531 59.46839004 230.10201073 59.48405075 231.52303505 C59.6540971 248.5432082 55.02313312 261.55191122 43.5625 274.1875 C39.41076045 278.16176061 35.08323969 280.91328738 30 283.5 C29.36006104 283.82637451 28.72012207 284.15274902 28.06079102 284.48901367 C18.22872195 289.14774535 8.13432951 289.30823269 -2.58203125 289.30078125 C-3.96823757 289.30467754 -5.35444271 289.3090141 -6.74064636 289.31376648 C-9.625884 289.3211757 -12.5109991 289.32097371 -15.39624023 289.31567383 C-19.0859948 289.3098479 -22.77525247 289.32691016 -26.46492481 289.3500185 C-29.31915698 289.36476259 -32.17326908 289.36562731 -35.02753258 289.36250877 C-36.38825156 289.36302039 -37.74897754 289.36822816 -39.10965919 289.37832069 C-41.00902064 289.39069665 -42.90848397 289.38194356 -44.80786133 289.37231445 C-45.88578445 289.37294388 -46.96370758 289.3735733 -48.07429504 289.3742218 C-52.18671072 288.84820991 -54.76924425 287.10343619 -57.8125 284.375 C-59.67411321 280.65177358 -59.6754242 277.07433308 -59 273 C-57.20606332 270.12970131 -56.01736724 268.50868362 -53 267 C-51.17424183 266.89047344 -49.3445849 266.84358069 -47.515625 266.82641602 C-45.79243042 266.80618126 -45.79243042 266.80618126 -44.03442383 266.78553772 C-42.16113403 266.76988014 -42.16113403 266.76988014 -40.25 266.75390625 C-38.28908516 266.72939481 -36.32817039 266.70487212 -34.36726379 266.67970943 C-29.52894721 266.61906388 -24.69053228 266.56860098 -19.85205078 266.52319336 C-17.14249176 266.49737972 -14.43307445 266.4664851 -11.72363281 266.43040466 C-9.17489641 266.39684511 -6.6260464 266.37080754 -4.07714844 266.35340881 C7.79090824 266.18517553 18.74920024 265.13928046 27.75 256.75 C33.53524099 250.60813457 36.09243925 243.83565831 36.17700195 235.47558594 C36.19625481 233.8116983 36.19625481 233.8116983 36.21589661 232.11419678 C36.22328354 230.91635559 36.23067047 229.7185144 36.23828125 228.484375 C36.25038887 226.61872894 36.25038887 226.61872894 36.26274109 224.71539307 C36.27657965 222.07584929 36.28759351 219.43643019 36.29516602 216.796875 C36.3039582 214.12001663 36.32698692 211.444416 36.35668945 208.76757812 C36.68647092 182.89031709 36.68647092 182.89031709 28.3125 158.6875 C27.96856201 158.02927246 27.62462402 157.37104492 27.27026367 156.69287109 C18.16335173 139.85894458 2.90027525 128.11783852 -15.08203125 121.94140625 C-17.71070473 121.18984297 -20.32309738 120.55216638 -23 120 C-24.6396875 119.6596875 -24.6396875 119.6596875 -26.3125 119.3125 C-39.87681798 118.16298153 -52.82043639 119.07937006 -65.375 124.6875 C-70.34216743 126.8840028 -74.59460021 128.30327821 -80 127 C-82.91678448 125.65852528 -83.83226628 124.60128047 -86 122 C-87.48625513 117.91069917 -87.28099139 114.85950307 -85.9375 110.75 C-83.69059243 107.56084086 -81.26768228 106.07500042 -78 104 C-79.051875 103.05253906 -79.051875 103.05253906 -80.125 102.0859375 C-93.40544019 89.56334852 -100.88554968 75.03071025 -101.46850586 56.52832031 C-101.66647956 37.49215125 -96.73123783 22.37106645 -83.37109375 8.3125 C-60.9545217 -13.55012052 -26.23904737 -18.09359246 0 0 Z M-71.4296875 28.75390625 C-78.4160599 38.74685185 -79.89376754 49.05372679 -79 61 C-77.37441694 68.8492439 -74.32765317 75.04474371 -69 81 C-68.236875 81.86625 -67.47375 82.7325 -66.6875 83.625 C-57.74340737 91.52908186 -46.83408235 96.97971133 -34.59765625 96.3828125 C-21.23029314 94.41288531 -11.80436525 88.6291368 -2.9375 78.6875 C4.12837247 68.88645109 5.84179802 58.95887665 5 47 C3.07030096 35.47045365 -3.64877917 25.5284796 -12.90625 18.56640625 C-14.88817428 17.24119101 -16.88264114 16.09477078 -19 15 C-19.928125 14.51853516 -19.928125 14.51853516 -20.875 14.02734375 C-39.42695932 6.23697021 -59.18159111 14.14164242 -71.4296875 28.75390625 Z " fill="#877eff" transform="translate(453,117)"/>
<path d="M0 0 C13.92229697 10.85453015 23.42945877 24.51640962 27 42 C27.40468944 45.78333756 27.47814665 49.50978054 27.4375 53.3125 C27.42614014 54.81635254 27.42614014 54.81635254 27.41455078 56.35058594 C26.96937784 76.50359727 17.95714297 90.13758877 4 104 C4.72316406 104.45439453 4.72316406 104.45439453 5.4609375 104.91796875 C8.3440071 106.83020879 10.60141082 108.38550835 12.5 111.3125 C13.19971961 115.07349291 13.22476514 118.38402673 12 122 C9.42883551 125.08539739 7.88658771 126.54513103 4.0234375 127.4765625 C-1.89605566 127.88554566 -6.39527017 125.68352145 -11.703125 123.3125 C-29.36662035 116.28058716 -48.93568792 117.70890821 -66.3125 124.75 C-72.41889186 127.54188637 -77.7531196 130.82391152 -83 135 C-83.75796875 135.58265625 -84.5159375 136.1653125 -85.296875 136.765625 C-99.1048048 148.09765014 -107.55240418 165.47270334 -110 183 C-110.63587882 191.464927 -110.57667654 199.95431556 -110.52148438 208.43798828 C-110.49993091 212.38766066 -110.52142831 216.33553707 -110.546875 220.28515625 C-110.54423343 222.82292064 -110.53911201 225.36068392 -110.53125 227.8984375 C-110.53934692 229.06531097 -110.54744385 230.23218445 -110.55578613 231.43441772 C-110.43797361 241.79486248 -107.96384851 249.72879774 -100.79296875 257.3125 C-90.96433001 266.56298352 -79.25298861 266.13319834 -66.5859375 266.17578125 C-64.61838678 266.19303723 -62.65083594 266.21031664 -60.68329811 266.22898388 C-55.85562332 266.27438485 -51.02807261 266.31236191 -46.20019531 266.32592773 C-43.48161606 266.33406329 -40.76349784 266.35262485 -38.04507446 266.38285828 C-35.49097985 266.41099262 -32.93666233 266.42392046 -30.38241577 266.41999817 C-28.64503647 266.44473457 -28.64503647 266.44473457 -26.87255859 266.4699707 C-25.34869034 266.47877007 -25.34869034 266.47877007 -23.79403687 266.48774719 C-20.26385328 267.13496358 -18.57274548 268.54864822 -16 271 C-14.25651049 274.48697902 -14.41917275 278.19590063 -15 282 C-16.9137306 285.57623788 -19.09286708 287.69762236 -23 289 C-24.97578457 289.1038586 -26.95487703 289.14858184 -28.93334961 289.16113281 C-30.15569809 289.17074036 -31.37804657 289.1803479 -32.63743591 289.19024658 C-33.97573662 289.19509834 -35.3140395 289.19937624 -36.65234375 289.203125 C-37.66832736 289.20736607 -37.66832736 289.20736607 -38.70483589 289.21169281 C-42.29777542 289.22668783 -45.89067485 289.23591191 -49.48364258 289.24023438 C-53.16503303 289.24568201 -56.84604664 289.2696293 -60.52731991 289.29820633 C-63.38183078 289.31700931 -66.2362547 289.32204784 -69.09082222 289.32357025 C-71.09794043 289.3280048 -73.10501177 289.34657543 -75.11204529 289.36553955 C-91.57345037 289.3260404 -105.72516763 284.90608882 -117.75 273.34375 C-126.87666047 263.83681201 -133.06226893 252.9708756 -133.17700195 239.55761719 C-133.18983719 238.24815125 -133.20267242 236.9386853 -133.21589661 235.58953857 C-133.22407231 234.15865462 -133.23151444 232.72776631 -133.23828125 231.296875 C-133.24235678 230.57029945 -133.2464323 229.84372391 -133.25063133 229.09513092 C-133.27148373 225.23822823 -133.28578067 221.38136088 -133.29516602 217.52441406 C-133.30613959 213.58439911 -133.34043443 209.64496321 -133.38033772 205.7051506 C-133.40680197 202.64031098 -133.41488454 199.57560202 -133.41844749 196.51065826 C-133.42324884 195.06131394 -133.43467231 193.61197278 -133.45348549 192.16274261 C-133.77097534 166.05122695 -123.58868854 142.4081571 -105.69140625 123.55859375 C-97.35895981 115.63732754 -88.08145402 109.48576417 -78 104 C-79.051875 103.05253906 -79.051875 103.05253906 -80.125 102.0859375 C-93.40544019 89.56334852 -100.88554968 75.03071025 -101.46850586 56.52832031 C-101.66647956 37.49215125 -96.73123783 22.37106645 -83.37109375 8.3125 C-60.9545217 -13.55012052 -26.23904737 -18.09359246 0 0 Z M-71.4296875 28.75390625 C-78.4160599 38.74685185 -79.89376754 49.05372679 -79 61 C-77.37441694 68.8492439 -74.32765317 75.04474371 -69 81 C-68.236875 81.86625 -67.47375 82.7325 -66.6875 83.625 C-57.74340737 91.52908186 -46.83408235 96.97971133 -34.59765625 96.3828125 C-21.23029314 94.41288531 -11.80436525 88.6291368 -2.9375 78.6875 C4.12837247 68.88645109 5.84179802 58.95887665 5 47 C3.07030096 35.47045365 -3.64877917 25.5284796 -12.90625 18.56640625 C-14.88817428 17.24119101 -16.88264114 16.09477078 -19 15 C-19.928125 14.51853516 -19.928125 14.51853516 -20.875 14.02734375 C-39.42695932 6.23697021 -59.18159111 14.14164242 -71.4296875 28.75390625 Z " fill="#877eff" transform="translate(133,117)"/>
</svg>
