<svg width="930" height="233" viewBox="0 0 930 233" fill="none" xmlns="http://www.w3.org/2000/svg">
<g filter="url(#filter0_d_0_1)">
<circle cx="116.578" cy="112.5" r="112.5" fill="url(#paint0_linear_0_1)"/>
</g>
<circle cx="116.578" cy="112.5" r="78.5" fill="#202020"/>
<path d="M53.8826 121.604C60.0804 85.6379 68.6605 68.3515 109.236 51.7663" stroke="url(#paint1_linear_0_1)" stroke-width="12" stroke-linecap="round"/>
<path d="M82.9094 121.604C85.8422 98.6987 90.9329 87.8673 117.073 78.5008" stroke="url(#paint2_linear_0_1)" stroke-width="12" stroke-linecap="round"/>
<g filter="url(#filter1_d_0_1)">
<path d="M234.234 152.25V72.25H268.766C274.703 72.25 279.898 73.4219 284.352 75.7656C288.805 78.1094 292.268 81.4036 294.742 85.6484C297.216 89.8932 298.453 94.8542 298.453 100.531C298.453 106.26 297.177 111.221 294.625 115.414C292.099 119.607 288.544 122.836 283.961 125.102C279.404 127.367 274.078 128.5 267.984 128.5H247.359V111.625H263.609C266.161 111.625 268.336 111.182 270.133 110.297C271.956 109.385 273.349 108.096 274.313 106.43C275.302 104.763 275.797 102.797 275.797 100.531C275.797 98.2396 275.302 96.2865 274.313 94.6719C273.349 93.0312 271.956 91.7812 270.133 90.9219C268.336 90.0365 266.161 89.5937 263.609 89.5937H255.953V152.25H234.234Z" fill="#49C0EC"/>
<path d="M306.422 152.25V72.25H328.141V103.5H356.891V72.25H378.609V152.25H356.891V121H328.141V152.25H306.422Z" fill="#A3CC54"/>
<path d="M466.422 112.25C466.422 121.156 464.69 128.669 461.227 134.789C457.763 140.883 453.089 145.505 447.203 148.656C441.318 151.781 434.755 153.344 427.516 153.344C420.224 153.344 413.635 151.768 407.75 148.617C401.891 145.44 397.229 140.805 393.766 134.711C390.328 128.591 388.609 121.104 388.609 112.25C388.609 103.344 390.328 95.8437 393.766 89.75C397.229 83.6302 401.891 79.0078 407.75 75.8828C413.635 72.7318 420.224 71.1562 427.516 71.1562C434.755 71.1562 441.318 72.7318 447.203 75.8828C453.089 79.0078 457.763 83.6302 461.227 89.75C464.69 95.8437 466.422 103.344 466.422 112.25ZM444.078 112.25C444.078 107.458 443.44 103.422 442.164 100.141C440.914 96.8333 439.052 94.3333 436.578 92.6406C434.13 90.9219 431.109 90.0625 427.516 90.0625C423.922 90.0625 420.888 90.9219 418.414 92.6406C415.966 94.3333 414.104 96.8333 412.828 100.141C411.578 103.422 410.953 107.458 410.953 112.25C410.953 117.042 411.578 121.091 412.828 124.398C414.104 127.68 415.966 130.18 418.414 131.898C420.888 133.591 423.922 134.437 427.516 134.437C431.109 134.437 434.13 133.591 436.578 131.898C439.052 130.18 440.914 127.68 442.164 124.398C443.44 121.091 444.078 117.042 444.078 112.25Z" fill="#E67EA3"/>
<path d="M470.523 89.75V72.25H540.055V89.75H515.992V152.25H494.586V89.75H470.523Z" fill="#8C79B4"/>
<path d="M621.969 112.25C621.969 121.156 620.237 128.669 616.773 134.789C613.31 140.883 608.635 145.505 602.75 148.656C596.865 151.781 590.302 153.344 583.063 153.344C575.771 153.344 569.182 151.768 563.297 148.617C557.438 145.44 552.776 140.805 549.313 134.711C545.875 128.591 544.156 121.104 544.156 112.25C544.156 103.344 545.875 95.8437 549.313 89.75C552.776 83.6302 557.438 79.0078 563.297 75.8828C569.182 72.7318 575.771 71.1562 583.063 71.1562C590.302 71.1562 596.865 72.7318 602.75 75.8828C608.635 79.0078 613.31 83.6302 616.773 89.75C620.237 95.8437 621.969 103.344 621.969 112.25ZM599.625 112.25C599.625 107.458 598.987 103.422 597.711 100.141C596.461 96.8333 594.599 94.3333 592.125 92.6406C589.677 90.9219 586.656 90.0625 583.063 90.0625C579.469 90.0625 576.435 90.9219 573.961 92.6406C571.513 94.3333 569.651 96.8333 568.375 100.141C567.125 103.422 566.5 107.458 566.5 112.25C566.5 117.042 567.125 121.091 568.375 124.398C569.651 127.68 571.513 130.18 573.961 131.898C576.435 133.591 579.469 134.437 583.063 134.437C586.656 134.437 589.677 133.591 592.125 131.898C594.599 130.18 596.461 127.68 597.711 124.398C598.987 121.091 599.625 117.042 599.625 112.25Z" fill="#F9CC85"/>
<path d="M653.932 152.25V72.25H710.182V89.75H675.65V103.5H706.744V121H675.65V152.25H653.932Z" fill="#71C7D4"/>
<path d="M718.17 152.25V72.25H775.826V89.75H739.889V103.5H772.857V121H739.889V134.75H775.67V152.25H718.17Z" fill="#FEFEFE"/>
<path d="M786.598 152.25V72.25H844.254V89.75H808.316V103.5H841.285V121H808.316V134.75H844.098V152.25H786.598Z" fill="#E62722"/>
<path d="M885.807 152.25H855.025V72.25H885.494C893.723 72.25 900.833 73.8516 906.822 77.0547C912.838 80.2318 917.473 84.8151 920.729 90.8047C924.01 96.7682 925.65 103.917 925.65 112.25C925.65 120.583 924.023 127.745 920.768 133.734C917.512 139.698 912.903 144.281 906.939 147.484C900.976 150.661 893.932 152.25 885.807 152.25ZM876.744 133.812H885.025C888.984 133.812 892.356 133.174 895.143 131.898C897.955 130.622 900.09 128.422 901.549 125.297C903.033 122.172 903.775 117.823 903.775 112.25C903.775 106.677 903.02 102.328 901.51 99.2031C900.025 96.0781 897.838 93.8776 894.947 92.6016C892.083 91.3255 888.567 90.6875 884.4 90.6875H876.744V133.812Z" fill="#2253A3"/>
</g>
<defs>
<filter id="filter0_d_0_1" x="0.078125" y="0" width="233" height="233" filterUnits="userSpaceOnUse" color-interpolation-filters="sRGB">
<feFlood flood-opacity="0" result="BackgroundImageFix"/>
<feColorMatrix in="SourceAlpha" type="matrix" values="0 0 0 0 0 0 0 0 0 0 0 0 0 0 0 0 0 0 127 0" result="hardAlpha"/>
<feOffset dy="4"/>
<feGaussianBlur stdDeviation="2"/>
<feComposite in2="hardAlpha" operator="out"/>
<feColorMatrix type="matrix" values="0 0 0 0 0 0 0 0 0 0 0 0 0 0 0 0 0 0 0.25 0"/>
<feBlend mode="normal" in2="BackgroundImageFix" result="effect1_dropShadow_0_1"/>
<feBlend mode="normal" in="SourceGraphic" in2="effect1_dropShadow_0_1" result="shape"/>
</filter>
<filter id="filter1_d_0_1" x="230.234" y="71.1562" width="699.416" height="91.1875" filterUnits="userSpaceOnUse" color-interpolation-filters="sRGB">
<feFlood flood-opacity="0" result="BackgroundImageFix"/>
<feColorMatrix in="SourceAlpha" type="matrix" values="0 0 0 0 0 0 0 0 0 0 0 0 0 0 0 0 0 0 127 0" result="hardAlpha"/>
<feOffset dy="5"/>
<feGaussianBlur stdDeviation="2"/>
<feComposite in2="hardAlpha" operator="out"/>
<feColorMatrix type="matrix" values="0 0 0 0 0 0 0 0 0 0 0 0 0 0 0 0 0 0 0.25 0"/>
<feBlend mode="normal" in2="BackgroundImageFix" result="effect1_dropShadow_0_1"/>
<feBlend mode="normal" in="SourceGraphic" in2="effect1_dropShadow_0_1" result="shape"/>
</filter>
<linearGradient id="paint0_linear_0_1" x1="116.578" y1="0" x2="116.578" y2="225" gradientUnits="userSpaceOnUse">
<stop stop-color="#F9C596"/>
<stop offset="1" stop-color="#FC5D9D"/>
</linearGradient>
<linearGradient id="paint1_linear_0_1" x1="86.3161" y1="59.4712" x2="48.1398" y2="117.052" gradientUnits="userSpaceOnUse">
<stop stop-color="#F9C596"/>
<stop offset="1" stop-color="#FC5D9D"/>
</linearGradient>
<linearGradient id="paint2_linear_0_1" x1="113.154" y1="75.395" x2="78.9909" y2="118.498" gradientUnits="userSpaceOnUse">
<stop stop-color="#F9C596"/>
<stop offset="1" stop-color="#FC5D9D"/>
</linearGradient>
</defs>
</svg>
